%TF.GenerationSoftware,KiCad,Pcbnew,10.0.3*%
%TF.CreationDate,2026-06-14T23:16:42+01:00*%
%TF.ProjectId,TimegrapherPreamp,54696d65-6772-4617-9068-657250726561,rev?*%
%TF.SameCoordinates,Original*%
%TF.FileFunction,Legend,Bot*%
%TF.FilePolarity,Positive*%
%FSLAX46Y46*%
G04 Gerber Fmt 4.6, Leading zero omitted, Abs format (unit mm)*
G04 Created by KiCad (PCBNEW 10.0.3) date 2026-06-14 23:16:42*
%MOMM*%
%LPD*%
G01*
G04 APERTURE LIST*
%ADD10C,0.150000*%
G04 APERTURE END LIST*
D10*
X154063952Y-83149295D02*
X153606809Y-83149295D01*
X153835381Y-83949295D02*
X153835381Y-83149295D01*
X153340142Y-83949295D02*
X153340142Y-83415961D01*
X153340142Y-83149295D02*
X153378238Y-83187390D01*
X153378238Y-83187390D02*
X153340142Y-83225485D01*
X153340142Y-83225485D02*
X153302047Y-83187390D01*
X153302047Y-83187390D02*
X153340142Y-83149295D01*
X153340142Y-83149295D02*
X153340142Y-83225485D01*
X152959190Y-83949295D02*
X152959190Y-83415961D01*
X152959190Y-83492152D02*
X152921095Y-83454057D01*
X152921095Y-83454057D02*
X152844905Y-83415961D01*
X152844905Y-83415961D02*
X152730619Y-83415961D01*
X152730619Y-83415961D02*
X152654428Y-83454057D01*
X152654428Y-83454057D02*
X152616333Y-83530247D01*
X152616333Y-83530247D02*
X152616333Y-83949295D01*
X152616333Y-83530247D02*
X152578238Y-83454057D01*
X152578238Y-83454057D02*
X152502047Y-83415961D01*
X152502047Y-83415961D02*
X152387762Y-83415961D01*
X152387762Y-83415961D02*
X152311571Y-83454057D01*
X152311571Y-83454057D02*
X152273476Y-83530247D01*
X152273476Y-83530247D02*
X152273476Y-83949295D01*
X151587761Y-83911200D02*
X151663952Y-83949295D01*
X151663952Y-83949295D02*
X151816333Y-83949295D01*
X151816333Y-83949295D02*
X151892523Y-83911200D01*
X151892523Y-83911200D02*
X151930619Y-83835009D01*
X151930619Y-83835009D02*
X151930619Y-83530247D01*
X151930619Y-83530247D02*
X151892523Y-83454057D01*
X151892523Y-83454057D02*
X151816333Y-83415961D01*
X151816333Y-83415961D02*
X151663952Y-83415961D01*
X151663952Y-83415961D02*
X151587761Y-83454057D01*
X151587761Y-83454057D02*
X151549666Y-83530247D01*
X151549666Y-83530247D02*
X151549666Y-83606438D01*
X151549666Y-83606438D02*
X151930619Y-83682628D01*
X150863952Y-83415961D02*
X150863952Y-84063580D01*
X150863952Y-84063580D02*
X150902047Y-84139771D01*
X150902047Y-84139771D02*
X150940143Y-84177866D01*
X150940143Y-84177866D02*
X151016333Y-84215961D01*
X151016333Y-84215961D02*
X151130619Y-84215961D01*
X151130619Y-84215961D02*
X151206809Y-84177866D01*
X150863952Y-83911200D02*
X150940143Y-83949295D01*
X150940143Y-83949295D02*
X151092524Y-83949295D01*
X151092524Y-83949295D02*
X151168714Y-83911200D01*
X151168714Y-83911200D02*
X151206809Y-83873104D01*
X151206809Y-83873104D02*
X151244905Y-83796914D01*
X151244905Y-83796914D02*
X151244905Y-83568342D01*
X151244905Y-83568342D02*
X151206809Y-83492152D01*
X151206809Y-83492152D02*
X151168714Y-83454057D01*
X151168714Y-83454057D02*
X151092524Y-83415961D01*
X151092524Y-83415961D02*
X150940143Y-83415961D01*
X150940143Y-83415961D02*
X150863952Y-83454057D01*
X150482999Y-83949295D02*
X150482999Y-83415961D01*
X150482999Y-83568342D02*
X150444904Y-83492152D01*
X150444904Y-83492152D02*
X150406809Y-83454057D01*
X150406809Y-83454057D02*
X150330618Y-83415961D01*
X150330618Y-83415961D02*
X150254428Y-83415961D01*
X149644904Y-83949295D02*
X149644904Y-83530247D01*
X149644904Y-83530247D02*
X149682999Y-83454057D01*
X149682999Y-83454057D02*
X149759190Y-83415961D01*
X149759190Y-83415961D02*
X149911571Y-83415961D01*
X149911571Y-83415961D02*
X149987761Y-83454057D01*
X149644904Y-83911200D02*
X149721095Y-83949295D01*
X149721095Y-83949295D02*
X149911571Y-83949295D01*
X149911571Y-83949295D02*
X149987761Y-83911200D01*
X149987761Y-83911200D02*
X150025857Y-83835009D01*
X150025857Y-83835009D02*
X150025857Y-83758819D01*
X150025857Y-83758819D02*
X149987761Y-83682628D01*
X149987761Y-83682628D02*
X149911571Y-83644533D01*
X149911571Y-83644533D02*
X149721095Y-83644533D01*
X149721095Y-83644533D02*
X149644904Y-83606438D01*
X149263951Y-83415961D02*
X149263951Y-84215961D01*
X149263951Y-83454057D02*
X149187761Y-83415961D01*
X149187761Y-83415961D02*
X149035380Y-83415961D01*
X149035380Y-83415961D02*
X148959189Y-83454057D01*
X148959189Y-83454057D02*
X148921094Y-83492152D01*
X148921094Y-83492152D02*
X148882999Y-83568342D01*
X148882999Y-83568342D02*
X148882999Y-83796914D01*
X148882999Y-83796914D02*
X148921094Y-83873104D01*
X148921094Y-83873104D02*
X148959189Y-83911200D01*
X148959189Y-83911200D02*
X149035380Y-83949295D01*
X149035380Y-83949295D02*
X149187761Y-83949295D01*
X149187761Y-83949295D02*
X149263951Y-83911200D01*
X148540141Y-83949295D02*
X148540141Y-83149295D01*
X148197284Y-83949295D02*
X148197284Y-83530247D01*
X148197284Y-83530247D02*
X148235379Y-83454057D01*
X148235379Y-83454057D02*
X148311570Y-83415961D01*
X148311570Y-83415961D02*
X148425856Y-83415961D01*
X148425856Y-83415961D02*
X148502046Y-83454057D01*
X148502046Y-83454057D02*
X148540141Y-83492152D01*
X147511569Y-83911200D02*
X147587760Y-83949295D01*
X147587760Y-83949295D02*
X147740141Y-83949295D01*
X147740141Y-83949295D02*
X147816331Y-83911200D01*
X147816331Y-83911200D02*
X147854427Y-83835009D01*
X147854427Y-83835009D02*
X147854427Y-83530247D01*
X147854427Y-83530247D02*
X147816331Y-83454057D01*
X147816331Y-83454057D02*
X147740141Y-83415961D01*
X147740141Y-83415961D02*
X147587760Y-83415961D01*
X147587760Y-83415961D02*
X147511569Y-83454057D01*
X147511569Y-83454057D02*
X147473474Y-83530247D01*
X147473474Y-83530247D02*
X147473474Y-83606438D01*
X147473474Y-83606438D02*
X147854427Y-83682628D01*
X147130617Y-83949295D02*
X147130617Y-83415961D01*
X147130617Y-83568342D02*
X147092522Y-83492152D01*
X147092522Y-83492152D02*
X147054427Y-83454057D01*
X147054427Y-83454057D02*
X146978236Y-83415961D01*
X146978236Y-83415961D02*
X146902046Y-83415961D01*
X146025855Y-83949295D02*
X146025855Y-83149295D01*
X146025855Y-83149295D02*
X145721093Y-83149295D01*
X145721093Y-83149295D02*
X145644903Y-83187390D01*
X145644903Y-83187390D02*
X145606808Y-83225485D01*
X145606808Y-83225485D02*
X145568712Y-83301676D01*
X145568712Y-83301676D02*
X145568712Y-83415961D01*
X145568712Y-83415961D02*
X145606808Y-83492152D01*
X145606808Y-83492152D02*
X145644903Y-83530247D01*
X145644903Y-83530247D02*
X145721093Y-83568342D01*
X145721093Y-83568342D02*
X146025855Y-83568342D01*
X145225855Y-83949295D02*
X145225855Y-83415961D01*
X145225855Y-83568342D02*
X145187760Y-83492152D01*
X145187760Y-83492152D02*
X145149665Y-83454057D01*
X145149665Y-83454057D02*
X145073474Y-83415961D01*
X145073474Y-83415961D02*
X144997284Y-83415961D01*
X144425855Y-83911200D02*
X144502046Y-83949295D01*
X144502046Y-83949295D02*
X144654427Y-83949295D01*
X144654427Y-83949295D02*
X144730617Y-83911200D01*
X144730617Y-83911200D02*
X144768713Y-83835009D01*
X144768713Y-83835009D02*
X144768713Y-83530247D01*
X144768713Y-83530247D02*
X144730617Y-83454057D01*
X144730617Y-83454057D02*
X144654427Y-83415961D01*
X144654427Y-83415961D02*
X144502046Y-83415961D01*
X144502046Y-83415961D02*
X144425855Y-83454057D01*
X144425855Y-83454057D02*
X144387760Y-83530247D01*
X144387760Y-83530247D02*
X144387760Y-83606438D01*
X144387760Y-83606438D02*
X144768713Y-83682628D01*
X144044903Y-83644533D02*
X143435380Y-83644533D01*
X143092523Y-83720723D02*
X142711570Y-83720723D01*
X143168713Y-83949295D02*
X142902046Y-83149295D01*
X142902046Y-83149295D02*
X142635380Y-83949295D01*
X142368713Y-83949295D02*
X142368713Y-83415961D01*
X142368713Y-83492152D02*
X142330618Y-83454057D01*
X142330618Y-83454057D02*
X142254428Y-83415961D01*
X142254428Y-83415961D02*
X142140142Y-83415961D01*
X142140142Y-83415961D02*
X142063951Y-83454057D01*
X142063951Y-83454057D02*
X142025856Y-83530247D01*
X142025856Y-83530247D02*
X142025856Y-83949295D01*
X142025856Y-83530247D02*
X141987761Y-83454057D01*
X141987761Y-83454057D02*
X141911570Y-83415961D01*
X141911570Y-83415961D02*
X141797285Y-83415961D01*
X141797285Y-83415961D02*
X141721094Y-83454057D01*
X141721094Y-83454057D02*
X141682999Y-83530247D01*
X141682999Y-83530247D02*
X141682999Y-83949295D01*
X141302046Y-83415961D02*
X141302046Y-84215961D01*
X141302046Y-83454057D02*
X141225856Y-83415961D01*
X141225856Y-83415961D02*
X141073475Y-83415961D01*
X141073475Y-83415961D02*
X140997284Y-83454057D01*
X140997284Y-83454057D02*
X140959189Y-83492152D01*
X140959189Y-83492152D02*
X140921094Y-83568342D01*
X140921094Y-83568342D02*
X140921094Y-83796914D01*
X140921094Y-83796914D02*
X140959189Y-83873104D01*
X140959189Y-83873104D02*
X140997284Y-83911200D01*
X140997284Y-83911200D02*
X141073475Y-83949295D01*
X141073475Y-83949295D02*
X141225856Y-83949295D01*
X141225856Y-83949295D02*
X141302046Y-83911200D01*
X140082998Y-83149295D02*
X139816331Y-83949295D01*
X139816331Y-83949295D02*
X139549665Y-83149295D01*
X138863951Y-83949295D02*
X139321094Y-83949295D01*
X139092522Y-83949295D02*
X139092522Y-83149295D01*
X139092522Y-83149295D02*
X139168713Y-83263580D01*
X139168713Y-83263580D02*
X139244903Y-83339771D01*
X139244903Y-83339771D02*
X139321094Y-83377866D01*
X138521093Y-83873104D02*
X138482998Y-83911200D01*
X138482998Y-83911200D02*
X138521093Y-83949295D01*
X138521093Y-83949295D02*
X138559189Y-83911200D01*
X138559189Y-83911200D02*
X138521093Y-83873104D01*
X138521093Y-83873104D02*
X138521093Y-83949295D01*
X137987760Y-83149295D02*
X137911570Y-83149295D01*
X137911570Y-83149295D02*
X137835379Y-83187390D01*
X137835379Y-83187390D02*
X137797284Y-83225485D01*
X137797284Y-83225485D02*
X137759189Y-83301676D01*
X137759189Y-83301676D02*
X137721094Y-83454057D01*
X137721094Y-83454057D02*
X137721094Y-83644533D01*
X137721094Y-83644533D02*
X137759189Y-83796914D01*
X137759189Y-83796914D02*
X137797284Y-83873104D01*
X137797284Y-83873104D02*
X137835379Y-83911200D01*
X137835379Y-83911200D02*
X137911570Y-83949295D01*
X137911570Y-83949295D02*
X137987760Y-83949295D01*
X137987760Y-83949295D02*
X138063951Y-83911200D01*
X138063951Y-83911200D02*
X138102046Y-83873104D01*
X138102046Y-83873104D02*
X138140141Y-83796914D01*
X138140141Y-83796914D02*
X138178237Y-83644533D01*
X138178237Y-83644533D02*
X138178237Y-83454057D01*
X138178237Y-83454057D02*
X138140141Y-83301676D01*
X138140141Y-83301676D02*
X138102046Y-83225485D01*
X138102046Y-83225485D02*
X138063951Y-83187390D01*
X138063951Y-83187390D02*
X137987760Y-83149295D01*
X137378236Y-83873104D02*
X137340141Y-83911200D01*
X137340141Y-83911200D02*
X137378236Y-83949295D01*
X137378236Y-83949295D02*
X137416332Y-83911200D01*
X137416332Y-83911200D02*
X137378236Y-83873104D01*
X137378236Y-83873104D02*
X137378236Y-83949295D01*
X136844903Y-83149295D02*
X136768713Y-83149295D01*
X136768713Y-83149295D02*
X136692522Y-83187390D01*
X136692522Y-83187390D02*
X136654427Y-83225485D01*
X136654427Y-83225485D02*
X136616332Y-83301676D01*
X136616332Y-83301676D02*
X136578237Y-83454057D01*
X136578237Y-83454057D02*
X136578237Y-83644533D01*
X136578237Y-83644533D02*
X136616332Y-83796914D01*
X136616332Y-83796914D02*
X136654427Y-83873104D01*
X136654427Y-83873104D02*
X136692522Y-83911200D01*
X136692522Y-83911200D02*
X136768713Y-83949295D01*
X136768713Y-83949295D02*
X136844903Y-83949295D01*
X136844903Y-83949295D02*
X136921094Y-83911200D01*
X136921094Y-83911200D02*
X136959189Y-83873104D01*
X136959189Y-83873104D02*
X136997284Y-83796914D01*
X136997284Y-83796914D02*
X137035380Y-83644533D01*
X137035380Y-83644533D02*
X137035380Y-83454057D01*
X137035380Y-83454057D02*
X136997284Y-83301676D01*
X136997284Y-83301676D02*
X136959189Y-83225485D01*
X136959189Y-83225485D02*
X136921094Y-83187390D01*
X136921094Y-83187390D02*
X136844903Y-83149295D01*
M02*
