%TF.GenerationSoftware,KiCad,Pcbnew,10.0.3*%
%TF.CreationDate,2026-06-14T23:16:42+01:00*%
%TF.ProjectId,TimegrapherPreamp,54696d65-6772-4617-9068-657250726561,rev?*%
%TF.SameCoordinates,Original*%
%TF.FileFunction,Soldermask,Top*%
%TF.FilePolarity,Negative*%
%FSLAX46Y46*%
G04 Gerber Fmt 4.6, Leading zero omitted, Abs format (unit mm)*
G04 Created by KiCad (PCBNEW 10.0.3) date 2026-06-14 23:16:42*
%MOMM*%
%LPD*%
G01*
G04 APERTURE LIST*
G04 Aperture macros list*
%AMRoundRect*
0 Rectangle with rounded corners*
0 $1 Rounding radius*
0 $2 $3 $4 $5 $6 $7 $8 $9 X,Y pos of 4 corners*
0 Add a 4 corners polygon primitive as box body*
4,1,4,$2,$3,$4,$5,$6,$7,$8,$9,$2,$3,0*
0 Add four circle primitives for the rounded corners*
1,1,$1+$1,$2,$3*
1,1,$1+$1,$4,$5*
1,1,$1+$1,$6,$7*
1,1,$1+$1,$8,$9*
0 Add four rect primitives between the rounded corners*
20,1,$1+$1,$2,$3,$4,$5,0*
20,1,$1+$1,$4,$5,$6,$7,0*
20,1,$1+$1,$6,$7,$8,$9,0*
20,1,$1+$1,$8,$9,$2,$3,0*%
G04 Aperture macros list end*
%ADD10C,2.700000*%
%ADD11R,1.700000X1.700000*%
%ADD12C,1.700000*%
%ADD13C,1.600000*%
%ADD14RoundRect,0.250000X-0.550000X-0.550000X0.550000X-0.550000X0.550000X0.550000X-0.550000X0.550000X0*%
%ADD15RoundRect,0.250000X0.550000X0.550000X-0.550000X0.550000X-0.550000X-0.550000X0.550000X-0.550000X0*%
G04 APERTURE END LIST*
D10*
%TO.C,H2*%
X160283000Y-80662000D03*
%TD*%
D11*
%TO.C,J_IN*%
X130048000Y-92964000D03*
D12*
X130048000Y-90424000D03*
%TD*%
D13*
%TO.C,R3*%
X135861000Y-87884000D03*
X138401000Y-87884000D03*
%TD*%
%TO.C,C1*%
X129580000Y-97790000D03*
X134580000Y-97790000D03*
%TD*%
D14*
%TO.C,D2*%
X141478000Y-98044000D03*
D13*
X149098000Y-98044000D03*
%TD*%
D15*
%TO.C,D1*%
X149098000Y-102870000D03*
D13*
X141478000Y-102870000D03*
%TD*%
%TO.C,C4*%
X153750000Y-102362000D03*
X158750000Y-102362000D03*
%TD*%
D14*
%TO.C,C_FILTER*%
X136946000Y-81534000D03*
D13*
X139446000Y-81534000D03*
%TD*%
%TO.C,R1*%
X130019000Y-102362000D03*
X132559000Y-102362000D03*
%TD*%
D11*
%TO.C,J_OUT*%
X160303000Y-94426000D03*
D12*
X160303000Y-91886000D03*
X160303000Y-89346000D03*
%TD*%
D14*
%TO.C,C3*%
X136712900Y-93472000D03*
D13*
X138712900Y-93472000D03*
%TD*%
D10*
%TO.C,H1*%
X130283000Y-80662000D03*
%TD*%
D13*
%TO.C,R4*%
X138176000Y-98044000D03*
X138176000Y-100584000D03*
%TD*%
%TO.C,C_dec*%
X150783000Y-81280000D03*
X155783000Y-81280000D03*
%TD*%
%TO.C,R5*%
X145288000Y-81280000D03*
X147828000Y-81280000D03*
%TD*%
%TO.C,R6*%
X153895000Y-87122000D03*
X156435000Y-87122000D03*
%TD*%
%TO.C,R_FILTER*%
X130048000Y-85344000D03*
X132588000Y-85344000D03*
%TD*%
D14*
%TO.C,U1*%
X142494000Y-86614000D03*
D13*
X142494000Y-89154000D03*
X142494000Y-91694000D03*
X142494000Y-94234000D03*
X150114000Y-94234000D03*
X150114000Y-91694000D03*
X150114000Y-89154000D03*
X150114000Y-86614000D03*
%TD*%
%TO.C,R7*%
X154178000Y-94742000D03*
X156718000Y-94742000D03*
%TD*%
M02*
