%TF.GenerationSoftware,KiCad,Pcbnew,10.0.3*%
%TF.CreationDate,2026-06-14T23:16:42+01:00*%
%TF.ProjectId,TimegrapherPreamp,54696d65-6772-4617-9068-657250726561,rev?*%
%TF.SameCoordinates,Original*%
%TF.FileFunction,Copper,L1,Top*%
%TF.FilePolarity,Positive*%
%FSLAX46Y46*%
G04 Gerber Fmt 4.6, Leading zero omitted, Abs format (unit mm)*
G04 Created by KiCad (PCBNEW 10.0.3) date 2026-06-14 23:16:42*
%MOMM*%
%LPD*%
G01*
G04 APERTURE LIST*
G04 Aperture macros list*
%AMRoundRect*
0 Rectangle with rounded corners*
0 $1 Rounding radius*
0 $2 $3 $4 $5 $6 $7 $8 $9 X,Y pos of 4 corners*
0 Add a 4 corners polygon primitive as box body*
4,1,4,$2,$3,$4,$5,$6,$7,$8,$9,$2,$3,0*
0 Add four circle primitives for the rounded corners*
1,1,$1+$1,$2,$3*
1,1,$1+$1,$4,$5*
1,1,$1+$1,$6,$7*
1,1,$1+$1,$8,$9*
0 Add four rect primitives between the rounded corners*
20,1,$1+$1,$2,$3,$4,$5,0*
20,1,$1+$1,$4,$5,$6,$7,0*
20,1,$1+$1,$6,$7,$8,$9,0*
20,1,$1+$1,$8,$9,$2,$3,0*%
G04 Aperture macros list end*
%TA.AperFunction,ComponentPad*%
%ADD10R,1.700000X1.700000*%
%TD*%
%TA.AperFunction,ComponentPad*%
%ADD11C,1.700000*%
%TD*%
%TA.AperFunction,ComponentPad*%
%ADD12C,1.600000*%
%TD*%
%TA.AperFunction,ComponentPad*%
%ADD13RoundRect,0.250000X-0.550000X-0.550000X0.550000X-0.550000X0.550000X0.550000X-0.550000X0.550000X0*%
%TD*%
%TA.AperFunction,ComponentPad*%
%ADD14RoundRect,0.250000X0.550000X0.550000X-0.550000X0.550000X-0.550000X-0.550000X0.550000X-0.550000X0*%
%TD*%
%TA.AperFunction,Conductor*%
%ADD15C,0.200000*%
%TD*%
G04 APERTURE END LIST*
D10*
%TO.P,J_IN,1*%
%TO.N,PZ*%
X130048000Y-92964000D03*
D11*
%TO.P,J_IN,2*%
%TO.N,VREF*%
X130048000Y-90424000D03*
%TD*%
D12*
%TO.P,R3,1*%
%TO.N,+5VF*%
X135861000Y-87884000D03*
%TO.P,R3,2*%
%TO.N,VREF_DIV*%
X138401000Y-87884000D03*
%TD*%
%TO.P,C1,1*%
%TO.N,PZ*%
X129580000Y-97790000D03*
%TO.P,C1,2*%
%TO.N,VREF*%
X134580000Y-97790000D03*
%TD*%
D13*
%TO.P,D2,1*%
%TO.N,VREF*%
X141478000Y-98044000D03*
D12*
%TO.P,D2,2*%
%TO.N,PZ*%
X149098000Y-98044000D03*
%TD*%
D14*
%TO.P,D1,1*%
%TO.N,PZ*%
X149098000Y-102870000D03*
D12*
%TO.P,D1,2*%
%TO.N,VREF*%
X141478000Y-102870000D03*
%TD*%
%TO.P,C4,1*%
%TO.N,GLEGC*%
X153750000Y-102362000D03*
%TO.P,C4,2*%
%TO.N,GND*%
X158750000Y-102362000D03*
%TD*%
D13*
%TO.P,C_FILTER,1*%
%TO.N,+5VF*%
X136946000Y-81534000D03*
D12*
%TO.P,C_FILTER,2*%
%TO.N,GND*%
X139446000Y-81534000D03*
%TD*%
%TO.P,R1,1*%
%TO.N,PZ*%
X130019000Y-102362000D03*
%TO.P,R1,2*%
%TO.N,VREF*%
X132559000Y-102362000D03*
%TD*%
D10*
%TO.P,J_OUT,1*%
%TO.N,+5V*%
X160303000Y-94426000D03*
D11*
%TO.P,J_OUT,2*%
%TO.N,AUDIO_OUT*%
X160303000Y-91886000D03*
%TO.P,J_OUT,3*%
%TO.N,GND*%
X160303000Y-89346000D03*
%TD*%
D13*
%TO.P,C3,1*%
%TO.N,VREF_DIV*%
X136712900Y-93472000D03*
D12*
%TO.P,C3,2*%
%TO.N,GND*%
X138712900Y-93472000D03*
%TD*%
%TO.P,R4,1*%
%TO.N,VREF_DIV*%
X138176000Y-98044000D03*
%TO.P,R4,2*%
%TO.N,GND*%
X138176000Y-100584000D03*
%TD*%
%TO.P,C_dec,1*%
%TO.N,+5VF*%
X150783000Y-81280000D03*
%TO.P,C_dec,2*%
%TO.N,GND*%
X155783000Y-81280000D03*
%TD*%
%TO.P,R5,1*%
%TO.N,AUDIO_OUT*%
X145288000Y-81280000D03*
%TO.P,R5,2*%
%TO.N,FB*%
X147828000Y-81280000D03*
%TD*%
%TO.P,R6,1*%
%TO.N,FB*%
X153895000Y-87122000D03*
%TO.P,R6,2*%
%TO.N,GLEG*%
X156435000Y-87122000D03*
%TD*%
%TO.P,R_FILTER,1*%
%TO.N,+5V*%
X130048000Y-85344000D03*
%TO.P,R_FILTER,2*%
%TO.N,+5VF*%
X132588000Y-85344000D03*
%TD*%
D13*
%TO.P,U1,1*%
%TO.N,AUDIO_OUT*%
X142494000Y-86614000D03*
D12*
%TO.P,U1,2*%
%TO.N,FB*%
X142494000Y-89154000D03*
%TO.P,U1,3*%
%TO.N,PZ*%
X142494000Y-91694000D03*
%TO.P,U1,4*%
%TO.N,GND*%
X142494000Y-94234000D03*
%TO.P,U1,5*%
%TO.N,VREF_DIV*%
X150114000Y-94234000D03*
%TO.P,U1,6*%
%TO.N,VREF*%
X150114000Y-91694000D03*
%TO.P,U1,7*%
X150114000Y-89154000D03*
%TO.P,U1,8*%
%TO.N,+5VF*%
X150114000Y-86614000D03*
%TD*%
%TO.P,R7,1*%
%TO.N,GLEG*%
X154178000Y-94742000D03*
%TO.P,R7,2*%
%TO.N,GLEGC*%
X156718000Y-94742000D03*
%TD*%
%TO.N,PZ*%
D15*
X142494000Y-91694000D02*
X132469700Y-91694000D01*
X130048000Y-92964000D02*
X131199700Y-92964000D01*
X132469700Y-91694000D02*
X131199700Y-92964000D01*
%TO.N,VREF*%
X140366800Y-99155200D02*
X141478000Y-98044000D01*
X150159300Y-95815100D02*
X151221500Y-94752900D01*
X141478000Y-98044000D02*
X147205300Y-98044000D01*
X135945200Y-99155200D02*
X140366800Y-99155200D01*
X151221500Y-92801500D02*
X150114000Y-91694000D01*
X147205300Y-98044000D02*
X149434200Y-95815100D01*
X134580000Y-97790000D02*
X135945200Y-99155200D01*
X151221500Y-94752900D02*
X151221500Y-92801500D01*
X149434200Y-95815100D02*
X150159300Y-95815100D01*
%TO.N,+5VF*%
X149661000Y-80158000D02*
X138877600Y-80158000D01*
X138877600Y-80158000D02*
X137247600Y-81788000D01*
X150783000Y-81280000D02*
X149661000Y-80158000D01*
%TO.N,VREF_DIV*%
X139971100Y-96248900D02*
X138176000Y-98044000D01*
X150114000Y-94234000D02*
X148099100Y-96248900D01*
X148099100Y-96248900D02*
X139971100Y-96248900D01*
%TO.N,+5V*%
X134984500Y-90280500D02*
X130048000Y-85344000D01*
X155005800Y-90280500D02*
X134984500Y-90280500D01*
X160303000Y-94426000D02*
X159151300Y-94426000D01*
X159151300Y-94426000D02*
X155005800Y-90280500D01*
%TO.N,AUDIO_OUT*%
X153777600Y-85440000D02*
X155165000Y-86827400D01*
X155165000Y-87429800D02*
X159621200Y-91886000D01*
X159621200Y-91886000D02*
X160303000Y-91886000D01*
X142494000Y-86614000D02*
X143668000Y-85440000D01*
X143668000Y-85440000D02*
X153777600Y-85440000D01*
X155165000Y-86827400D02*
X155165000Y-87429800D01*
%TO.N,FB*%
X153133000Y-87884000D02*
X153895000Y-87122000D01*
X142494000Y-89154000D02*
X143764000Y-87884000D01*
X143764000Y-87884000D02*
X153133000Y-87884000D01*
%TD*%
%TA.AperFunction,Conductor*%
%TO.N,GND*%
G36*
X162725539Y-78182185D02*
G01*
X162771294Y-78234989D01*
X162782500Y-78286500D01*
X162782500Y-105037500D01*
X162762815Y-105104539D01*
X162710011Y-105150294D01*
X162658500Y-105161500D01*
X127907500Y-105161500D01*
X127840461Y-105141815D01*
X127794706Y-105089011D01*
X127783500Y-105037500D01*
X127783500Y-102258530D01*
X128968500Y-102258530D01*
X128968500Y-102465469D01*
X129008868Y-102668412D01*
X129008870Y-102668420D01*
X129088058Y-102859596D01*
X129203024Y-103031657D01*
X129349342Y-103177975D01*
X129349345Y-103177977D01*
X129521402Y-103292941D01*
X129712580Y-103372130D01*
X129915530Y-103412499D01*
X129915534Y-103412500D01*
X129915535Y-103412500D01*
X130122466Y-103412500D01*
X130122467Y-103412499D01*
X130325420Y-103372130D01*
X130516598Y-103292941D01*
X130688655Y-103177977D01*
X130834977Y-103031655D01*
X130949941Y-102859598D01*
X131029130Y-102668420D01*
X131069500Y-102465465D01*
X131069500Y-102258535D01*
X131069499Y-102258530D01*
X131508500Y-102258530D01*
X131508500Y-102465469D01*
X131548868Y-102668412D01*
X131548870Y-102668420D01*
X131628058Y-102859596D01*
X131743024Y-103031657D01*
X131889342Y-103177975D01*
X131889345Y-103177977D01*
X132061402Y-103292941D01*
X132252580Y-103372130D01*
X132455530Y-103412499D01*
X132455534Y-103412500D01*
X132455535Y-103412500D01*
X132662466Y-103412500D01*
X132662467Y-103412499D01*
X132865420Y-103372130D01*
X133056598Y-103292941D01*
X133228655Y-103177977D01*
X133374977Y-103031655D01*
X133489941Y-102859598D01*
X133528491Y-102766530D01*
X140427500Y-102766530D01*
X140427500Y-102973469D01*
X140467868Y-103176412D01*
X140467870Y-103176420D01*
X140547059Y-103367598D01*
X140592038Y-103434914D01*
X140662024Y-103539657D01*
X140808342Y-103685975D01*
X140808345Y-103685977D01*
X140980402Y-103800941D01*
X141171580Y-103880130D01*
X141342315Y-103914091D01*
X141374530Y-103920499D01*
X141374534Y-103920500D01*
X141374535Y-103920500D01*
X141581466Y-103920500D01*
X141581467Y-103920499D01*
X141784420Y-103880130D01*
X141975598Y-103800941D01*
X142147655Y-103685977D01*
X142293977Y-103539655D01*
X142408941Y-103367598D01*
X142488130Y-103176420D01*
X142528500Y-102973465D01*
X142528500Y-102766535D01*
X142488130Y-102563580D01*
X142408941Y-102372402D01*
X142341945Y-102272135D01*
X148047500Y-102272135D01*
X148047500Y-103467870D01*
X148047501Y-103467876D01*
X148053908Y-103527483D01*
X148104202Y-103662328D01*
X148104206Y-103662335D01*
X148190452Y-103777544D01*
X148190455Y-103777547D01*
X148305664Y-103863793D01*
X148305671Y-103863797D01*
X148440517Y-103914091D01*
X148440516Y-103914091D01*
X148447444Y-103914835D01*
X148500127Y-103920500D01*
X149695872Y-103920499D01*
X149755483Y-103914091D01*
X149890331Y-103863796D01*
X150005546Y-103777546D01*
X150091796Y-103662331D01*
X150142091Y-103527483D01*
X150148500Y-103467873D01*
X150148499Y-102272128D01*
X150148498Y-102272115D01*
X150147808Y-102265693D01*
X150147038Y-102258530D01*
X152699500Y-102258530D01*
X152699500Y-102465469D01*
X152739868Y-102668412D01*
X152739870Y-102668420D01*
X152819058Y-102859596D01*
X152934024Y-103031657D01*
X153080342Y-103177975D01*
X153080345Y-103177977D01*
X153252402Y-103292941D01*
X153443580Y-103372130D01*
X153646530Y-103412499D01*
X153646534Y-103412500D01*
X153646535Y-103412500D01*
X153853466Y-103412500D01*
X153853467Y-103412499D01*
X154056420Y-103372130D01*
X154247598Y-103292941D01*
X154419655Y-103177977D01*
X154421220Y-103176412D01*
X154464038Y-103133595D01*
X154565974Y-103031658D01*
X154565975Y-103031657D01*
X154565977Y-103031655D01*
X154680941Y-102859598D01*
X154760130Y-102668420D01*
X154800500Y-102465465D01*
X154800500Y-102275426D01*
X157650000Y-102275426D01*
X157650000Y-102448571D01*
X157677085Y-102619584D01*
X157730591Y-102784257D01*
X157809195Y-102938523D01*
X157809196Y-102938525D01*
X157843463Y-102985691D01*
X157843464Y-102985691D01*
X158363629Y-102465527D01*
X158377259Y-102516394D01*
X158429920Y-102607606D01*
X158504394Y-102682080D01*
X158595606Y-102734741D01*
X158646471Y-102748370D01*
X158126307Y-103268534D01*
X158173478Y-103302805D01*
X158327742Y-103381408D01*
X158492415Y-103434914D01*
X158663429Y-103462000D01*
X158836571Y-103462000D01*
X159007584Y-103434914D01*
X159172257Y-103381408D01*
X159326525Y-103302803D01*
X159373691Y-103268534D01*
X159373692Y-103268533D01*
X158853529Y-102748370D01*
X158904394Y-102734741D01*
X158995606Y-102682080D01*
X159070080Y-102607606D01*
X159122741Y-102516394D01*
X159136370Y-102465528D01*
X159656533Y-102985692D01*
X159656534Y-102985691D01*
X159690803Y-102938525D01*
X159769408Y-102784257D01*
X159822914Y-102619584D01*
X159850000Y-102448571D01*
X159850000Y-102275426D01*
X159822914Y-102104415D01*
X159769408Y-101939742D01*
X159690805Y-101785478D01*
X159656534Y-101738307D01*
X159136370Y-102258471D01*
X159122741Y-102207606D01*
X159070080Y-102116394D01*
X158995606Y-102041920D01*
X158904394Y-101989259D01*
X158853527Y-101975629D01*
X159373691Y-101455464D01*
X159373691Y-101455463D01*
X159326525Y-101421196D01*
X159326523Y-101421195D01*
X159172257Y-101342591D01*
X159007584Y-101289085D01*
X158836571Y-101262000D01*
X158663429Y-101262000D01*
X158492415Y-101289085D01*
X158327740Y-101342592D01*
X158173475Y-101421196D01*
X158126307Y-101455463D01*
X158126307Y-101455464D01*
X158646472Y-101975629D01*
X158595606Y-101989259D01*
X158504394Y-102041920D01*
X158429920Y-102116394D01*
X158377259Y-102207606D01*
X158363629Y-102258472D01*
X157843464Y-101738307D01*
X157843463Y-101738307D01*
X157809196Y-101785475D01*
X157730592Y-101939740D01*
X157677085Y-102104415D01*
X157650000Y-102275426D01*
X154800500Y-102275426D01*
X154800500Y-102258535D01*
X154760130Y-102055580D01*
X154680941Y-101864402D01*
X154565977Y-101692345D01*
X154565975Y-101692342D01*
X154419657Y-101546024D01*
X154284121Y-101455463D01*
X154247598Y-101431059D01*
X154223784Y-101421195D01*
X154056420Y-101351870D01*
X154056412Y-101351868D01*
X153853469Y-101311500D01*
X153853465Y-101311500D01*
X153646535Y-101311500D01*
X153646530Y-101311500D01*
X153443587Y-101351868D01*
X153443579Y-101351870D01*
X153252403Y-101431058D01*
X153080342Y-101546024D01*
X152934024Y-101692342D01*
X152819058Y-101864403D01*
X152739870Y-102055579D01*
X152739868Y-102055587D01*
X152699500Y-102258530D01*
X150147038Y-102258530D01*
X150145210Y-102241538D01*
X150142091Y-102212517D01*
X150091796Y-102077669D01*
X150091795Y-102077668D01*
X150091793Y-102077664D01*
X150005547Y-101962455D01*
X150005544Y-101962452D01*
X149890335Y-101876206D01*
X149890328Y-101876202D01*
X149755482Y-101825908D01*
X149755483Y-101825908D01*
X149695883Y-101819501D01*
X149695881Y-101819500D01*
X149695873Y-101819500D01*
X149695864Y-101819500D01*
X148500129Y-101819500D01*
X148500123Y-101819501D01*
X148440516Y-101825908D01*
X148305671Y-101876202D01*
X148305664Y-101876206D01*
X148190455Y-101962452D01*
X148190452Y-101962455D01*
X148104206Y-102077664D01*
X148104202Y-102077671D01*
X148053908Y-102212517D01*
X148047501Y-102272116D01*
X148047500Y-102272135D01*
X142341945Y-102272135D01*
X142293977Y-102200345D01*
X142293975Y-102200342D01*
X142147657Y-102054024D01*
X141976617Y-101939740D01*
X141975598Y-101939059D01*
X141784420Y-101859870D01*
X141784412Y-101859868D01*
X141581469Y-101819500D01*
X141581465Y-101819500D01*
X141374535Y-101819500D01*
X141374530Y-101819500D01*
X141171587Y-101859868D01*
X141171579Y-101859870D01*
X140980403Y-101939058D01*
X140808342Y-102054024D01*
X140662024Y-102200342D01*
X140547058Y-102372403D01*
X140467870Y-102563579D01*
X140467868Y-102563587D01*
X140427500Y-102766530D01*
X133528491Y-102766530D01*
X133569130Y-102668420D01*
X133609500Y-102465465D01*
X133609500Y-102258535D01*
X133569130Y-102055580D01*
X133489941Y-101864402D01*
X133374977Y-101692345D01*
X133374975Y-101692342D01*
X133228656Y-101546023D01*
X133093121Y-101455463D01*
X133056598Y-101431059D01*
X133032784Y-101421195D01*
X132865420Y-101351870D01*
X132865412Y-101351868D01*
X132662469Y-101311500D01*
X132662465Y-101311500D01*
X132455535Y-101311500D01*
X132455530Y-101311500D01*
X132252587Y-101351868D01*
X132252579Y-101351870D01*
X132061403Y-101431058D01*
X131889342Y-101546024D01*
X131743024Y-101692342D01*
X131628058Y-101864403D01*
X131548870Y-102055579D01*
X131548868Y-102055587D01*
X131508500Y-102258530D01*
X131069499Y-102258530D01*
X131029130Y-102055580D01*
X130949941Y-101864402D01*
X130834977Y-101692345D01*
X130834975Y-101692342D01*
X130688657Y-101546024D01*
X130553121Y-101455463D01*
X130516598Y-101431059D01*
X130492784Y-101421195D01*
X130325420Y-101351870D01*
X130325412Y-101351868D01*
X130122469Y-101311500D01*
X130122465Y-101311500D01*
X129915535Y-101311500D01*
X129915530Y-101311500D01*
X129712587Y-101351868D01*
X129712579Y-101351870D01*
X129521403Y-101431058D01*
X129349342Y-101546024D01*
X129203024Y-101692342D01*
X129088058Y-101864403D01*
X129008870Y-102055579D01*
X129008868Y-102055587D01*
X128968500Y-102258530D01*
X127783500Y-102258530D01*
X127783500Y-97686530D01*
X128529500Y-97686530D01*
X128529500Y-97893469D01*
X128569868Y-98096412D01*
X128569870Y-98096420D01*
X128649058Y-98287596D01*
X128764024Y-98459657D01*
X128910342Y-98605975D01*
X128910345Y-98605977D01*
X129082402Y-98720941D01*
X129273580Y-98800130D01*
X129455561Y-98836328D01*
X129476530Y-98840499D01*
X129476534Y-98840500D01*
X129476535Y-98840500D01*
X129683466Y-98840500D01*
X129683467Y-98840499D01*
X129886420Y-98800130D01*
X130077598Y-98720941D01*
X130249655Y-98605977D01*
X130395977Y-98459655D01*
X130510941Y-98287598D01*
X130590130Y-98096420D01*
X130630500Y-97893465D01*
X130630500Y-97686535D01*
X130590130Y-97483580D01*
X130510941Y-97292402D01*
X130395977Y-97120345D01*
X130395975Y-97120342D01*
X130249657Y-96974024D01*
X130163626Y-96916541D01*
X130077598Y-96859059D01*
X130060201Y-96851853D01*
X129886420Y-96779870D01*
X129886412Y-96779868D01*
X129683469Y-96739500D01*
X129683465Y-96739500D01*
X129476535Y-96739500D01*
X129476530Y-96739500D01*
X129273587Y-96779868D01*
X129273579Y-96779870D01*
X129082403Y-96859058D01*
X128910342Y-96974024D01*
X128764024Y-97120342D01*
X128649058Y-97292403D01*
X128569870Y-97483579D01*
X128569868Y-97483587D01*
X128529500Y-97686530D01*
X127783500Y-97686530D01*
X127783500Y-92089321D01*
X128947500Y-92089321D01*
X128947500Y-93838678D01*
X128962032Y-93911735D01*
X128962033Y-93911739D01*
X128971577Y-93926023D01*
X129017399Y-93994601D01*
X129098103Y-94048525D01*
X129100260Y-94049966D01*
X129100264Y-94049967D01*
X129173321Y-94064499D01*
X129173324Y-94064500D01*
X129173326Y-94064500D01*
X130922676Y-94064500D01*
X130922677Y-94064499D01*
X130995740Y-94049966D01*
X131078601Y-93994601D01*
X131133966Y-93911740D01*
X131148500Y-93838674D01*
X131148500Y-93435731D01*
X131168185Y-93368692D01*
X131220989Y-93322937D01*
X131240407Y-93315956D01*
X131245841Y-93314500D01*
X131245844Y-93314500D01*
X131334988Y-93290614D01*
X131414912Y-93244470D01*
X131785247Y-92874135D01*
X135662400Y-92874135D01*
X135662400Y-94069870D01*
X135662401Y-94069876D01*
X135668808Y-94129483D01*
X135719102Y-94264328D01*
X135719106Y-94264335D01*
X135805352Y-94379544D01*
X135805355Y-94379547D01*
X135920564Y-94465793D01*
X135920571Y-94465797D01*
X136055417Y-94516091D01*
X136055416Y-94516091D01*
X136062344Y-94516835D01*
X136115027Y-94522500D01*
X137310772Y-94522499D01*
X137370383Y-94516091D01*
X137505231Y-94465796D01*
X137620446Y-94379546D01*
X137706696Y-94264331D01*
X137738757Y-94178370D01*
X137739245Y-94177143D01*
X137742798Y-94172600D01*
X137766797Y-94135258D01*
X138326529Y-93575527D01*
X138340159Y-93626394D01*
X138392820Y-93717606D01*
X138467294Y-93792080D01*
X138558506Y-93844741D01*
X138609371Y-93858370D01*
X138089207Y-94378534D01*
X138136378Y-94412805D01*
X138290642Y-94491408D01*
X138455315Y-94544914D01*
X138626329Y-94572000D01*
X138799471Y-94572000D01*
X138970484Y-94544914D01*
X139135157Y-94491408D01*
X139289425Y-94412803D01*
X139336591Y-94378534D01*
X139336592Y-94378533D01*
X139105487Y-94147428D01*
X141394000Y-94147428D01*
X141394000Y-94320571D01*
X141421085Y-94491584D01*
X141474591Y-94656257D01*
X141553195Y-94810523D01*
X141553196Y-94810525D01*
X141587463Y-94857691D01*
X141587464Y-94857691D01*
X142107629Y-94337527D01*
X142121259Y-94388394D01*
X142173920Y-94479606D01*
X142248394Y-94554080D01*
X142339606Y-94606741D01*
X142390471Y-94620370D01*
X141870307Y-95140534D01*
X141917478Y-95174805D01*
X142071742Y-95253408D01*
X142236415Y-95306914D01*
X142407429Y-95334000D01*
X142580571Y-95334000D01*
X142751584Y-95306914D01*
X142916257Y-95253408D01*
X143070525Y-95174803D01*
X143117691Y-95140534D01*
X143117692Y-95140533D01*
X142597529Y-94620370D01*
X142648394Y-94606741D01*
X142739606Y-94554080D01*
X142814080Y-94479606D01*
X142866741Y-94388394D01*
X142880370Y-94337528D01*
X143400533Y-94857692D01*
X143400534Y-94857691D01*
X143434803Y-94810525D01*
X143513408Y-94656257D01*
X143566914Y-94491584D01*
X143594000Y-94320571D01*
X143594000Y-94147428D01*
X143566914Y-93976415D01*
X143513408Y-93811742D01*
X143434805Y-93657478D01*
X143400534Y-93610307D01*
X142880370Y-94130471D01*
X142866741Y-94079606D01*
X142814080Y-93988394D01*
X142739606Y-93913920D01*
X142648394Y-93861259D01*
X142597527Y-93847629D01*
X143117691Y-93327464D01*
X143117691Y-93327463D01*
X143070525Y-93293196D01*
X143070523Y-93293195D01*
X142916257Y-93214591D01*
X142751584Y-93161085D01*
X142580571Y-93134000D01*
X142407429Y-93134000D01*
X142236415Y-93161085D01*
X142071740Y-93214592D01*
X141917475Y-93293196D01*
X141870307Y-93327463D01*
X141870307Y-93327464D01*
X142390472Y-93847629D01*
X142339606Y-93861259D01*
X142248394Y-93913920D01*
X142173920Y-93988394D01*
X142121259Y-94079606D01*
X142107629Y-94130472D01*
X141587464Y-93610307D01*
X141587463Y-93610307D01*
X141553196Y-93657475D01*
X141474592Y-93811740D01*
X141421085Y-93976415D01*
X141394000Y-94147428D01*
X139105487Y-94147428D01*
X138816429Y-93858370D01*
X138867294Y-93844741D01*
X138958506Y-93792080D01*
X139032980Y-93717606D01*
X139085641Y-93626394D01*
X139099270Y-93575528D01*
X139619433Y-94095692D01*
X139619434Y-94095691D01*
X139638341Y-94069670D01*
X139653703Y-94048525D01*
X139732308Y-93894257D01*
X139785814Y-93729584D01*
X139812900Y-93558571D01*
X139812900Y-93385429D01*
X139812899Y-93385428D01*
X139785814Y-93214415D01*
X139732308Y-93049742D01*
X139653705Y-92895478D01*
X139619434Y-92848307D01*
X139099270Y-93368471D01*
X139085641Y-93317606D01*
X139032980Y-93226394D01*
X138958506Y-93151920D01*
X138867294Y-93099259D01*
X138816427Y-93085629D01*
X139336591Y-92565464D01*
X139336591Y-92565463D01*
X139289425Y-92531196D01*
X139289423Y-92531195D01*
X139135157Y-92452591D01*
X138970484Y-92399085D01*
X138799471Y-92372000D01*
X138626329Y-92372000D01*
X138455315Y-92399085D01*
X138290640Y-92452592D01*
X138136375Y-92531196D01*
X138089207Y-92565463D01*
X138089207Y-92565464D01*
X138609372Y-93085629D01*
X138558506Y-93099259D01*
X138467294Y-93151920D01*
X138392820Y-93226394D01*
X138340159Y-93317606D01*
X138326529Y-93368472D01*
X137766796Y-92808739D01*
X137761663Y-92800936D01*
X137756813Y-92797464D01*
X137742142Y-92771261D01*
X137739243Y-92766854D01*
X137738769Y-92765662D01*
X137706696Y-92679669D01*
X137702215Y-92673684D01*
X137702215Y-92673682D01*
X137620447Y-92564455D01*
X137620444Y-92564452D01*
X137505235Y-92478206D01*
X137505228Y-92478202D01*
X137370382Y-92427908D01*
X137370383Y-92427908D01*
X137310783Y-92421501D01*
X137310781Y-92421500D01*
X137310773Y-92421500D01*
X137310764Y-92421500D01*
X136115029Y-92421500D01*
X136115023Y-92421501D01*
X136055416Y-92427908D01*
X135920571Y-92478202D01*
X135920564Y-92478206D01*
X135805355Y-92564452D01*
X135805352Y-92564455D01*
X135719106Y-92679664D01*
X135719102Y-92679671D01*
X135668808Y-92814517D01*
X135662401Y-92874116D01*
X135662400Y-92874135D01*
X131785247Y-92874135D01*
X132578563Y-92080819D01*
X132639886Y-92047334D01*
X132666244Y-92044500D01*
X141419275Y-92044500D01*
X141486314Y-92064185D01*
X141532069Y-92116989D01*
X141533836Y-92121048D01*
X141563056Y-92191594D01*
X141678024Y-92363657D01*
X141824342Y-92509975D01*
X141824345Y-92509977D01*
X141996402Y-92624941D01*
X142187580Y-92704130D01*
X142390530Y-92744499D01*
X142390534Y-92744500D01*
X142390535Y-92744500D01*
X142597466Y-92744500D01*
X142597467Y-92744499D01*
X142800420Y-92704130D01*
X142991598Y-92624941D01*
X143163655Y-92509977D01*
X143309977Y-92363655D01*
X143424941Y-92191598D01*
X143504130Y-92000420D01*
X143544500Y-91797465D01*
X143544500Y-91590535D01*
X143504130Y-91387580D01*
X143424941Y-91196402D01*
X143309977Y-91024345D01*
X143309975Y-91024342D01*
X143163657Y-90878024D01*
X143133842Y-90858103D01*
X143089037Y-90804491D01*
X143080329Y-90735166D01*
X143110483Y-90672138D01*
X143169925Y-90635419D01*
X143202732Y-90631000D01*
X149405268Y-90631000D01*
X149472307Y-90650685D01*
X149518062Y-90703489D01*
X149528006Y-90772647D01*
X149498981Y-90836203D01*
X149474158Y-90858103D01*
X149444342Y-90878024D01*
X149298024Y-91024342D01*
X149183058Y-91196403D01*
X149103870Y-91387579D01*
X149103868Y-91387587D01*
X149063500Y-91590530D01*
X149063500Y-91797469D01*
X149103868Y-92000412D01*
X149103870Y-92000420D01*
X149137172Y-92080819D01*
X149183059Y-92191598D01*
X149240541Y-92277626D01*
X149298024Y-92363657D01*
X149444342Y-92509975D01*
X149444345Y-92509977D01*
X149616402Y-92624941D01*
X149807580Y-92704130D01*
X150010530Y-92744499D01*
X150010534Y-92744500D01*
X150010535Y-92744500D01*
X150217466Y-92744500D01*
X150217467Y-92744499D01*
X150420420Y-92704130D01*
X150490972Y-92674905D01*
X150560438Y-92667437D01*
X150622918Y-92698711D01*
X150626104Y-92701786D01*
X150834681Y-92910363D01*
X150849384Y-92937290D01*
X150865977Y-92963109D01*
X150866868Y-92969309D01*
X150868166Y-92971686D01*
X150871000Y-92998044D01*
X150871000Y-93244397D01*
X150851315Y-93311436D01*
X150798511Y-93357191D01*
X150729353Y-93367135D01*
X150678111Y-93347500D01*
X150611598Y-93303059D01*
X150420420Y-93223870D01*
X150420412Y-93223868D01*
X150217469Y-93183500D01*
X150217465Y-93183500D01*
X150010535Y-93183500D01*
X150010530Y-93183500D01*
X149807587Y-93223868D01*
X149807579Y-93223870D01*
X149616403Y-93303058D01*
X149444342Y-93418024D01*
X149298024Y-93564342D01*
X149183058Y-93736403D01*
X149103870Y-93927579D01*
X149103868Y-93927587D01*
X149063500Y-94130530D01*
X149063500Y-94337469D01*
X149103868Y-94540412D01*
X149103870Y-94540420D01*
X149131341Y-94606741D01*
X149133093Y-94610969D01*
X149140562Y-94680438D01*
X149109287Y-94742917D01*
X149106213Y-94746103D01*
X147990237Y-95862081D01*
X147928914Y-95895566D01*
X147902556Y-95898400D01*
X139924956Y-95898400D01*
X139835812Y-95922286D01*
X139835809Y-95922287D01*
X139755891Y-95968427D01*
X139755886Y-95968431D01*
X138688103Y-97036213D01*
X138626780Y-97069698D01*
X138557088Y-97064714D01*
X138552990Y-97063101D01*
X138482420Y-97033870D01*
X138482412Y-97033868D01*
X138279469Y-96993500D01*
X138279465Y-96993500D01*
X138072535Y-96993500D01*
X138072530Y-96993500D01*
X137869587Y-97033868D01*
X137869579Y-97033870D01*
X137678403Y-97113058D01*
X137506342Y-97228024D01*
X137360024Y-97374342D01*
X137245058Y-97546403D01*
X137165870Y-97737579D01*
X137165868Y-97737587D01*
X137125500Y-97940530D01*
X137125500Y-98147469D01*
X137165868Y-98350412D01*
X137165870Y-98350420D01*
X137245059Y-98541598D01*
X137291973Y-98611810D01*
X137312850Y-98678487D01*
X137294365Y-98745867D01*
X137242386Y-98792557D01*
X137188870Y-98804700D01*
X136141743Y-98804700D01*
X136074704Y-98785015D01*
X136054062Y-98768381D01*
X135587786Y-98302105D01*
X135554301Y-98240782D01*
X135559285Y-98171090D01*
X135560891Y-98167005D01*
X135590130Y-98096420D01*
X135630500Y-97893465D01*
X135630500Y-97686535D01*
X135590130Y-97483580D01*
X135510941Y-97292402D01*
X135395977Y-97120345D01*
X135395975Y-97120342D01*
X135249657Y-96974024D01*
X135163626Y-96916541D01*
X135077598Y-96859059D01*
X135060201Y-96851853D01*
X134886420Y-96779870D01*
X134886412Y-96779868D01*
X134683469Y-96739500D01*
X134683465Y-96739500D01*
X134476535Y-96739500D01*
X134476530Y-96739500D01*
X134273587Y-96779868D01*
X134273579Y-96779870D01*
X134082403Y-96859058D01*
X133910342Y-96974024D01*
X133764024Y-97120342D01*
X133649058Y-97292403D01*
X133569870Y-97483579D01*
X133569868Y-97483587D01*
X133529500Y-97686530D01*
X133529500Y-97893469D01*
X133569868Y-98096412D01*
X133569870Y-98096420D01*
X133649058Y-98287596D01*
X133764024Y-98459657D01*
X133910342Y-98605975D01*
X133910345Y-98605977D01*
X134082402Y-98720941D01*
X134273580Y-98800130D01*
X134455561Y-98836328D01*
X134476530Y-98840499D01*
X134476534Y-98840500D01*
X134476535Y-98840500D01*
X134683466Y-98840500D01*
X134683467Y-98840499D01*
X134886420Y-98800130D01*
X134956972Y-98770905D01*
X135026440Y-98763437D01*
X135088919Y-98794711D01*
X135092105Y-98797786D01*
X135664731Y-99370412D01*
X135729988Y-99435669D01*
X135729991Y-99435670D01*
X135729994Y-99435673D01*
X135809906Y-99481811D01*
X135809907Y-99481811D01*
X135809912Y-99481814D01*
X135899056Y-99505700D01*
X135899058Y-99505700D01*
X137431683Y-99505700D01*
X137498722Y-99525385D01*
X137544477Y-99578189D01*
X137555301Y-99639430D01*
X137552307Y-99677464D01*
X138072472Y-100197629D01*
X138021606Y-100211259D01*
X137930394Y-100263920D01*
X137855920Y-100338394D01*
X137803259Y-100429606D01*
X137789629Y-100480472D01*
X137269464Y-99960307D01*
X137269463Y-99960307D01*
X137235196Y-100007475D01*
X137156592Y-100161740D01*
X137103085Y-100326415D01*
X137076000Y-100497428D01*
X137076000Y-100670571D01*
X137103085Y-100841584D01*
X137156591Y-101006257D01*
X137235195Y-101160523D01*
X137235196Y-101160525D01*
X137269463Y-101207691D01*
X137269464Y-101207691D01*
X137789629Y-100687527D01*
X137803259Y-100738394D01*
X137855920Y-100829606D01*
X137930394Y-100904080D01*
X138021606Y-100956741D01*
X138072471Y-100970370D01*
X137552307Y-101490534D01*
X137599478Y-101524805D01*
X137753742Y-101603408D01*
X137918415Y-101656914D01*
X138089429Y-101684000D01*
X138262571Y-101684000D01*
X138433584Y-101656914D01*
X138598257Y-101603408D01*
X138752525Y-101524803D01*
X138799691Y-101490534D01*
X138799692Y-101490533D01*
X138279529Y-100970370D01*
X138330394Y-100956741D01*
X138421606Y-100904080D01*
X138496080Y-100829606D01*
X138548741Y-100738394D01*
X138562370Y-100687528D01*
X139082533Y-101207692D01*
X139082534Y-101207691D01*
X139116803Y-101160525D01*
X139195408Y-101006257D01*
X139248914Y-100841584D01*
X139276000Y-100670571D01*
X139276000Y-100497428D01*
X139248914Y-100326415D01*
X139195408Y-100161742D01*
X139116805Y-100007478D01*
X139082534Y-99960307D01*
X138562370Y-100480471D01*
X138548741Y-100429606D01*
X138496080Y-100338394D01*
X138421606Y-100263920D01*
X138330394Y-100211259D01*
X138279527Y-100197629D01*
X138799691Y-99677464D01*
X138796698Y-99639430D01*
X138811062Y-99571052D01*
X138860113Y-99521295D01*
X138920316Y-99505700D01*
X140412942Y-99505700D01*
X140412944Y-99505700D01*
X140502088Y-99481814D01*
X140582012Y-99435670D01*
X140886863Y-99130817D01*
X140948186Y-99097333D01*
X140974544Y-99094499D01*
X142075871Y-99094499D01*
X142075872Y-99094499D01*
X142135483Y-99088091D01*
X142270331Y-99037796D01*
X142385546Y-98951546D01*
X142471796Y-98836331D01*
X142522091Y-98701483D01*
X142528500Y-98641873D01*
X142528500Y-98518500D01*
X142548185Y-98451461D01*
X142600989Y-98405706D01*
X142652500Y-98394500D01*
X147251442Y-98394500D01*
X147251444Y-98394500D01*
X147340588Y-98370614D01*
X147347774Y-98366465D01*
X147420512Y-98324470D01*
X147835819Y-97909161D01*
X147897142Y-97875677D01*
X147966833Y-97880661D01*
X148022767Y-97922532D01*
X148047184Y-97987997D01*
X148047500Y-97996843D01*
X148047500Y-98147469D01*
X148087868Y-98350412D01*
X148087870Y-98350420D01*
X148167059Y-98541598D01*
X148190646Y-98576898D01*
X148282024Y-98713657D01*
X148428342Y-98859975D01*
X148428345Y-98859977D01*
X148600402Y-98974941D01*
X148791580Y-99054130D01*
X148962315Y-99088091D01*
X148994530Y-99094499D01*
X148994534Y-99094500D01*
X148994535Y-99094500D01*
X149201466Y-99094500D01*
X149201467Y-99094499D01*
X149404420Y-99054130D01*
X149595598Y-98974941D01*
X149767655Y-98859977D01*
X149913977Y-98713655D01*
X150028941Y-98541598D01*
X150108130Y-98350420D01*
X150148500Y-98147465D01*
X150148500Y-97940535D01*
X150108130Y-97737580D01*
X150028941Y-97546402D01*
X149913977Y-97374345D01*
X149913975Y-97374342D01*
X149767657Y-97228024D01*
X149606502Y-97120345D01*
X149595598Y-97113059D01*
X149404420Y-97033870D01*
X149404412Y-97033868D01*
X149201469Y-96993500D01*
X149201465Y-96993500D01*
X149050843Y-96993500D01*
X148983804Y-96973815D01*
X148938049Y-96921011D01*
X148928105Y-96851853D01*
X148957130Y-96788297D01*
X148963162Y-96781819D01*
X149125897Y-96619085D01*
X149543063Y-96201919D01*
X149604386Y-96168434D01*
X149630744Y-96165600D01*
X150205442Y-96165600D01*
X150205444Y-96165600D01*
X150294588Y-96141714D01*
X150374512Y-96095570D01*
X151501970Y-94968112D01*
X151548114Y-94888188D01*
X151555801Y-94859501D01*
X151572000Y-94799044D01*
X151572000Y-94638530D01*
X153127500Y-94638530D01*
X153127500Y-94845469D01*
X153167868Y-95048412D01*
X153167870Y-95048420D01*
X153247059Y-95239598D01*
X153287868Y-95300674D01*
X153362024Y-95411657D01*
X153508342Y-95557975D01*
X153508345Y-95557977D01*
X153680402Y-95672941D01*
X153871580Y-95752130D01*
X154074530Y-95792499D01*
X154074534Y-95792500D01*
X154074535Y-95792500D01*
X154281466Y-95792500D01*
X154281467Y-95792499D01*
X154484420Y-95752130D01*
X154675598Y-95672941D01*
X154847655Y-95557977D01*
X154993977Y-95411655D01*
X155108941Y-95239598D01*
X155188130Y-95048420D01*
X155228500Y-94845465D01*
X155228500Y-94638535D01*
X155228499Y-94638530D01*
X155667500Y-94638530D01*
X155667500Y-94845469D01*
X155707868Y-95048412D01*
X155707870Y-95048420D01*
X155787059Y-95239598D01*
X155827868Y-95300674D01*
X155902024Y-95411657D01*
X156048342Y-95557975D01*
X156048345Y-95557977D01*
X156220402Y-95672941D01*
X156411580Y-95752130D01*
X156614530Y-95792499D01*
X156614534Y-95792500D01*
X156614535Y-95792500D01*
X156821466Y-95792500D01*
X156821467Y-95792499D01*
X157024420Y-95752130D01*
X157215598Y-95672941D01*
X157387655Y-95557977D01*
X157533977Y-95411655D01*
X157648941Y-95239598D01*
X157728130Y-95048420D01*
X157768500Y-94845465D01*
X157768500Y-94638535D01*
X157728130Y-94435580D01*
X157648941Y-94244402D01*
X157533977Y-94072345D01*
X157533975Y-94072342D01*
X157387657Y-93926024D01*
X157216617Y-93811740D01*
X157215598Y-93811059D01*
X157200714Y-93804894D01*
X157024420Y-93731870D01*
X157024412Y-93731868D01*
X156821469Y-93691500D01*
X156821465Y-93691500D01*
X156614535Y-93691500D01*
X156614530Y-93691500D01*
X156411587Y-93731868D01*
X156411579Y-93731870D01*
X156220403Y-93811058D01*
X156048342Y-93926024D01*
X155902024Y-94072342D01*
X155787058Y-94244403D01*
X155707870Y-94435579D01*
X155707868Y-94435587D01*
X155667500Y-94638530D01*
X155228499Y-94638530D01*
X155188130Y-94435580D01*
X155108941Y-94244402D01*
X154993977Y-94072345D01*
X154993975Y-94072342D01*
X154847657Y-93926024D01*
X154676617Y-93811740D01*
X154675598Y-93811059D01*
X154660714Y-93804894D01*
X154484420Y-93731870D01*
X154484412Y-93731868D01*
X154281469Y-93691500D01*
X154281465Y-93691500D01*
X154074535Y-93691500D01*
X154074530Y-93691500D01*
X153871587Y-93731868D01*
X153871579Y-93731870D01*
X153680403Y-93811058D01*
X153508342Y-93926024D01*
X153362024Y-94072342D01*
X153247058Y-94244403D01*
X153167870Y-94435579D01*
X153167868Y-94435587D01*
X153127500Y-94638530D01*
X151572000Y-94638530D01*
X151572000Y-92755356D01*
X151548114Y-92666212D01*
X151531471Y-92637386D01*
X151531471Y-92637385D01*
X151501972Y-92586291D01*
X151501968Y-92586286D01*
X151121786Y-92206104D01*
X151088301Y-92144781D01*
X151093285Y-92075089D01*
X151094887Y-92071015D01*
X151124130Y-92000420D01*
X151164500Y-91797465D01*
X151164500Y-91590535D01*
X151124130Y-91387580D01*
X151044941Y-91196402D01*
X150929977Y-91024345D01*
X150929975Y-91024342D01*
X150783657Y-90878024D01*
X150753842Y-90858103D01*
X150709037Y-90804491D01*
X150700329Y-90735166D01*
X150730483Y-90672138D01*
X150789925Y-90635419D01*
X150822732Y-90631000D01*
X154809256Y-90631000D01*
X154876295Y-90650685D01*
X154896937Y-90667319D01*
X156895830Y-92666211D01*
X158870831Y-94641212D01*
X158936088Y-94706469D01*
X158936091Y-94706470D01*
X158936094Y-94706473D01*
X159016006Y-94752611D01*
X159016008Y-94752612D01*
X159016009Y-94752612D01*
X159016012Y-94752614D01*
X159105156Y-94776500D01*
X159105159Y-94776500D01*
X159110593Y-94777956D01*
X159170254Y-94814321D01*
X159200783Y-94877167D01*
X159202500Y-94897731D01*
X159202500Y-95300678D01*
X159217032Y-95373735D01*
X159217033Y-95373739D01*
X159217034Y-95373740D01*
X159272399Y-95456601D01*
X159355260Y-95511966D01*
X159355264Y-95511967D01*
X159428321Y-95526499D01*
X159428324Y-95526500D01*
X159428326Y-95526500D01*
X161177676Y-95526500D01*
X161177677Y-95526499D01*
X161250740Y-95511966D01*
X161333601Y-95456601D01*
X161388966Y-95373740D01*
X161403500Y-95300674D01*
X161403500Y-93551326D01*
X161403500Y-93551323D01*
X161403499Y-93551321D01*
X161388967Y-93478264D01*
X161388966Y-93478260D01*
X161384783Y-93472000D01*
X161333601Y-93395399D01*
X161250740Y-93340034D01*
X161250739Y-93340033D01*
X161250735Y-93340032D01*
X161177677Y-93325500D01*
X161177674Y-93325500D01*
X159428326Y-93325500D01*
X159428323Y-93325500D01*
X159355264Y-93340032D01*
X159355260Y-93340033D01*
X159272399Y-93395399D01*
X159217033Y-93478260D01*
X159217032Y-93478264D01*
X159202500Y-93551321D01*
X159202500Y-93682156D01*
X159182815Y-93749195D01*
X159130011Y-93794950D01*
X159060853Y-93804894D01*
X158997297Y-93775869D01*
X158990819Y-93769837D01*
X155221013Y-90000031D01*
X155221008Y-90000027D01*
X155141090Y-89953887D01*
X155141089Y-89953886D01*
X155141088Y-89953886D01*
X155051944Y-89930000D01*
X155051943Y-89930000D01*
X151090907Y-89930000D01*
X151023868Y-89910315D01*
X150978113Y-89857511D01*
X150968169Y-89788353D01*
X150987804Y-89737110D01*
X151044941Y-89651598D01*
X151124130Y-89460420D01*
X151164500Y-89257465D01*
X151164500Y-89050535D01*
X151124130Y-88847580D01*
X151044941Y-88656402D01*
X150929977Y-88484345D01*
X150929975Y-88484342D01*
X150891814Y-88446181D01*
X150858329Y-88384858D01*
X150863313Y-88315166D01*
X150905185Y-88259233D01*
X150970649Y-88234816D01*
X150979495Y-88234500D01*
X153179142Y-88234500D01*
X153179144Y-88234500D01*
X153268288Y-88210614D01*
X153348212Y-88164470D01*
X153382894Y-88129787D01*
X153444215Y-88096301D01*
X153513907Y-88101284D01*
X153517994Y-88102891D01*
X153588580Y-88132130D01*
X153789036Y-88172003D01*
X153791530Y-88172499D01*
X153791534Y-88172500D01*
X153791535Y-88172500D01*
X153998466Y-88172500D01*
X153998467Y-88172499D01*
X154201420Y-88132130D01*
X154392598Y-88052941D01*
X154564655Y-87937977D01*
X154710977Y-87791655D01*
X154755286Y-87725340D01*
X154808897Y-87680537D01*
X154878222Y-87671828D01*
X154941250Y-87701983D01*
X154946069Y-87706551D01*
X159172198Y-91932680D01*
X159205683Y-91994003D01*
X159206990Y-92000963D01*
X159225367Y-92116989D01*
X159229598Y-92143701D01*
X159283127Y-92308445D01*
X159361768Y-92462788D01*
X159463586Y-92602928D01*
X159586072Y-92725414D01*
X159726212Y-92827232D01*
X159880555Y-92905873D01*
X160045299Y-92959402D01*
X160216389Y-92986500D01*
X160216390Y-92986500D01*
X160389610Y-92986500D01*
X160389611Y-92986500D01*
X160560701Y-92959402D01*
X160725445Y-92905873D01*
X160879788Y-92827232D01*
X161019928Y-92725414D01*
X161142414Y-92602928D01*
X161244232Y-92462788D01*
X161322873Y-92308445D01*
X161376402Y-92143701D01*
X161403500Y-91972611D01*
X161403500Y-91799389D01*
X161376402Y-91628299D01*
X161322873Y-91463555D01*
X161244232Y-91309212D01*
X161142414Y-91169072D01*
X161019928Y-91046586D01*
X160879788Y-90944768D01*
X160725445Y-90866127D01*
X160560701Y-90812598D01*
X160560699Y-90812597D01*
X160560698Y-90812597D01*
X160429271Y-90791781D01*
X160389611Y-90785500D01*
X160216389Y-90785500D01*
X160176728Y-90791781D01*
X160045302Y-90812597D01*
X160045299Y-90812598D01*
X159941130Y-90846445D01*
X159880552Y-90866128D01*
X159726211Y-90944768D01*
X159649107Y-91000788D01*
X159586072Y-91046586D01*
X159586070Y-91046588D01*
X159586069Y-91046588D01*
X159519451Y-91113207D01*
X159458128Y-91146692D01*
X159388436Y-91141708D01*
X159344089Y-91113207D01*
X157486375Y-89255493D01*
X159153000Y-89255493D01*
X159153000Y-89436506D01*
X159181317Y-89615293D01*
X159237251Y-89787444D01*
X159237252Y-89787447D01*
X159319434Y-89948734D01*
X159360667Y-90005487D01*
X159360668Y-90005487D01*
X159834980Y-89531176D01*
X159837075Y-89538993D01*
X159902901Y-89653007D01*
X159995993Y-89746099D01*
X160110007Y-89811925D01*
X160117822Y-89814019D01*
X159643510Y-90288330D01*
X159643511Y-90288331D01*
X159700265Y-90329565D01*
X159861552Y-90411747D01*
X159861555Y-90411748D01*
X160033706Y-90467682D01*
X160212494Y-90496000D01*
X160393506Y-90496000D01*
X160572293Y-90467682D01*
X160744444Y-90411748D01*
X160744447Y-90411747D01*
X160905730Y-90329568D01*
X160962487Y-90288330D01*
X160962488Y-90288329D01*
X160488178Y-89814019D01*
X160495993Y-89811925D01*
X160610007Y-89746099D01*
X160703099Y-89653007D01*
X160768925Y-89538993D01*
X160771019Y-89531177D01*
X161245329Y-90005488D01*
X161245330Y-90005487D01*
X161286568Y-89948730D01*
X161368747Y-89787447D01*
X161368748Y-89787444D01*
X161424682Y-89615293D01*
X161453000Y-89436506D01*
X161453000Y-89255493D01*
X161424682Y-89076706D01*
X161368748Y-88904555D01*
X161368747Y-88904552D01*
X161286565Y-88743265D01*
X161245331Y-88686511D01*
X161245330Y-88686510D01*
X160771018Y-89160821D01*
X160768925Y-89153007D01*
X160703099Y-89038993D01*
X160610007Y-88945901D01*
X160495993Y-88880075D01*
X160488176Y-88877980D01*
X160962487Y-88403668D01*
X160962487Y-88403667D01*
X160905734Y-88362434D01*
X160744447Y-88280252D01*
X160744444Y-88280251D01*
X160572293Y-88224317D01*
X160393506Y-88196000D01*
X160212494Y-88196000D01*
X160033706Y-88224317D01*
X159861555Y-88280251D01*
X159861552Y-88280252D01*
X159700270Y-88362431D01*
X159700268Y-88362432D01*
X159643511Y-88403667D01*
X159643511Y-88403668D01*
X160117823Y-88877980D01*
X160110007Y-88880075D01*
X159995993Y-88945901D01*
X159902901Y-89038993D01*
X159837075Y-89153007D01*
X159834980Y-89160823D01*
X159360668Y-88686511D01*
X159360667Y-88686511D01*
X159319432Y-88743268D01*
X159319431Y-88743270D01*
X159237252Y-88904552D01*
X159237251Y-88904555D01*
X159181317Y-89076706D01*
X159153000Y-89255493D01*
X157486375Y-89255493D01*
X156589833Y-88358951D01*
X156556348Y-88297628D01*
X156561332Y-88227936D01*
X156603204Y-88172003D01*
X156653318Y-88149654D01*
X156741420Y-88132130D01*
X156932598Y-88052941D01*
X157104655Y-87937977D01*
X157250977Y-87791655D01*
X157365941Y-87619598D01*
X157445130Y-87428420D01*
X157485500Y-87225465D01*
X157485500Y-87018535D01*
X157445130Y-86815580D01*
X157365941Y-86624402D01*
X157250977Y-86452345D01*
X157250975Y-86452342D01*
X157104657Y-86306024D01*
X157018626Y-86248541D01*
X156932598Y-86191059D01*
X156741420Y-86111870D01*
X156741412Y-86111868D01*
X156538469Y-86071500D01*
X156538465Y-86071500D01*
X156331535Y-86071500D01*
X156331530Y-86071500D01*
X156128587Y-86111868D01*
X156128579Y-86111870D01*
X155937403Y-86191058D01*
X155765342Y-86306024D01*
X155619025Y-86452341D01*
X155619022Y-86452345D01*
X155569426Y-86526571D01*
X155515814Y-86571376D01*
X155446489Y-86580083D01*
X155383461Y-86549928D01*
X155378643Y-86545361D01*
X153992813Y-85159531D01*
X153992808Y-85159527D01*
X153912890Y-85113387D01*
X153912889Y-85113386D01*
X153912888Y-85113386D01*
X153823744Y-85089500D01*
X143621856Y-85089500D01*
X143532712Y-85113386D01*
X143532709Y-85113387D01*
X143452791Y-85159527D01*
X143452786Y-85159531D01*
X143085136Y-85527181D01*
X143023813Y-85560666D01*
X142997455Y-85563500D01*
X141896129Y-85563500D01*
X141896123Y-85563501D01*
X141836516Y-85569908D01*
X141701671Y-85620202D01*
X141701664Y-85620206D01*
X141586455Y-85706452D01*
X141586452Y-85706455D01*
X141500206Y-85821664D01*
X141500202Y-85821671D01*
X141449908Y-85956517D01*
X141443501Y-86016116D01*
X141443500Y-86016135D01*
X141443500Y-87211870D01*
X141443501Y-87211876D01*
X141449908Y-87271483D01*
X141500202Y-87406328D01*
X141500206Y-87406335D01*
X141586452Y-87521544D01*
X141586455Y-87521547D01*
X141701664Y-87607793D01*
X141701671Y-87607797D01*
X141836517Y-87658091D01*
X141836516Y-87658091D01*
X141843444Y-87658835D01*
X141896127Y-87664500D01*
X143091872Y-87664499D01*
X143151483Y-87658091D01*
X143164028Y-87653411D01*
X143233718Y-87648428D01*
X143295042Y-87681912D01*
X143328527Y-87743235D01*
X143323543Y-87812927D01*
X143295042Y-87857275D01*
X143006104Y-88146213D01*
X142944781Y-88179698D01*
X142875089Y-88174714D01*
X142870970Y-88173093D01*
X142800420Y-88143870D01*
X142800412Y-88143868D01*
X142597469Y-88103500D01*
X142597465Y-88103500D01*
X142390535Y-88103500D01*
X142390530Y-88103500D01*
X142187587Y-88143868D01*
X142187579Y-88143870D01*
X141996403Y-88223058D01*
X141824342Y-88338024D01*
X141678024Y-88484342D01*
X141563058Y-88656403D01*
X141483870Y-88847579D01*
X141483868Y-88847587D01*
X141443500Y-89050530D01*
X141443500Y-89257469D01*
X141483868Y-89460412D01*
X141483870Y-89460420D01*
X141535301Y-89584586D01*
X141563059Y-89651598D01*
X141600123Y-89707069D01*
X141620196Y-89737110D01*
X141641073Y-89803787D01*
X141622588Y-89871167D01*
X141570609Y-89917857D01*
X141517093Y-89930000D01*
X135181043Y-89930000D01*
X135114004Y-89910315D01*
X135093362Y-89893681D01*
X133061806Y-87862124D01*
X132980212Y-87780530D01*
X134810500Y-87780530D01*
X134810500Y-87987469D01*
X134850868Y-88190412D01*
X134850870Y-88190420D01*
X134912009Y-88338023D01*
X134930059Y-88381598D01*
X134944805Y-88403667D01*
X135045024Y-88553657D01*
X135191342Y-88699975D01*
X135191345Y-88699977D01*
X135363402Y-88814941D01*
X135554580Y-88894130D01*
X135757530Y-88934499D01*
X135757534Y-88934500D01*
X135757535Y-88934500D01*
X135964466Y-88934500D01*
X135964467Y-88934499D01*
X136167420Y-88894130D01*
X136358598Y-88814941D01*
X136530655Y-88699977D01*
X136676977Y-88553655D01*
X136791941Y-88381598D01*
X136871130Y-88190420D01*
X136911500Y-87987465D01*
X136911500Y-87780535D01*
X136911499Y-87780530D01*
X137350500Y-87780530D01*
X137350500Y-87987469D01*
X137390868Y-88190412D01*
X137390870Y-88190420D01*
X137452009Y-88338023D01*
X137470059Y-88381598D01*
X137484805Y-88403667D01*
X137585024Y-88553657D01*
X137731342Y-88699975D01*
X137731345Y-88699977D01*
X137903402Y-88814941D01*
X138094580Y-88894130D01*
X138297530Y-88934499D01*
X138297534Y-88934500D01*
X138297535Y-88934500D01*
X138504466Y-88934500D01*
X138504467Y-88934499D01*
X138707420Y-88894130D01*
X138898598Y-88814941D01*
X139070655Y-88699977D01*
X139216977Y-88553655D01*
X139331941Y-88381598D01*
X139411130Y-88190420D01*
X139451500Y-87987465D01*
X139451500Y-87780535D01*
X139411130Y-87577580D01*
X139331941Y-87386402D01*
X139216977Y-87214345D01*
X139216975Y-87214342D01*
X139070657Y-87068024D01*
X138984626Y-87010541D01*
X138898598Y-86953059D01*
X138707420Y-86873870D01*
X138707412Y-86873868D01*
X138504469Y-86833500D01*
X138504465Y-86833500D01*
X138297535Y-86833500D01*
X138297530Y-86833500D01*
X138094587Y-86873868D01*
X138094579Y-86873870D01*
X137903403Y-86953058D01*
X137731342Y-87068024D01*
X137585024Y-87214342D01*
X137470058Y-87386403D01*
X137390870Y-87577579D01*
X137390868Y-87577587D01*
X137350500Y-87780530D01*
X136911499Y-87780530D01*
X136871130Y-87577580D01*
X136791941Y-87386402D01*
X136676977Y-87214345D01*
X136676975Y-87214342D01*
X136530657Y-87068024D01*
X136444626Y-87010541D01*
X136358598Y-86953059D01*
X136167420Y-86873870D01*
X136167412Y-86873868D01*
X135964469Y-86833500D01*
X135964465Y-86833500D01*
X135757535Y-86833500D01*
X135757530Y-86833500D01*
X135554587Y-86873868D01*
X135554579Y-86873870D01*
X135363403Y-86953058D01*
X135191342Y-87068024D01*
X135045024Y-87214342D01*
X134930058Y-87386403D01*
X134850870Y-87577579D01*
X134850868Y-87577587D01*
X134810500Y-87780530D01*
X132980212Y-87780530D01*
X131055786Y-85856104D01*
X131022301Y-85794781D01*
X131027285Y-85725089D01*
X131028887Y-85721015D01*
X131058130Y-85650420D01*
X131098500Y-85447465D01*
X131098500Y-85240535D01*
X131098499Y-85240530D01*
X131537500Y-85240530D01*
X131537500Y-85447469D01*
X131577868Y-85650412D01*
X131577870Y-85650420D01*
X131639009Y-85798023D01*
X131657059Y-85841598D01*
X131707249Y-85916713D01*
X131772024Y-86013657D01*
X131918342Y-86159975D01*
X131918345Y-86159977D01*
X132090402Y-86274941D01*
X132281580Y-86354130D01*
X132484530Y-86394499D01*
X132484534Y-86394500D01*
X132484535Y-86394500D01*
X132691466Y-86394500D01*
X132691467Y-86394499D01*
X132894420Y-86354130D01*
X133085598Y-86274941D01*
X133257655Y-86159977D01*
X133403977Y-86013655D01*
X133518941Y-85841598D01*
X133598130Y-85650420D01*
X133638500Y-85447465D01*
X133638500Y-85240535D01*
X133598130Y-85037580D01*
X133518941Y-84846402D01*
X133403977Y-84674345D01*
X133403975Y-84674342D01*
X133257657Y-84528024D01*
X133171626Y-84470541D01*
X133085598Y-84413059D01*
X132894420Y-84333870D01*
X132894412Y-84333868D01*
X132691469Y-84293500D01*
X132691465Y-84293500D01*
X132484535Y-84293500D01*
X132484530Y-84293500D01*
X132281587Y-84333868D01*
X132281579Y-84333870D01*
X132090403Y-84413058D01*
X131918342Y-84528024D01*
X131772024Y-84674342D01*
X131657058Y-84846403D01*
X131577870Y-85037579D01*
X131577868Y-85037587D01*
X131537500Y-85240530D01*
X131098499Y-85240530D01*
X131058130Y-85037580D01*
X130978941Y-84846402D01*
X130863977Y-84674345D01*
X130863975Y-84674342D01*
X130717657Y-84528024D01*
X130631626Y-84470541D01*
X130545598Y-84413059D01*
X130354420Y-84333870D01*
X130354412Y-84333868D01*
X130151469Y-84293500D01*
X130151465Y-84293500D01*
X129944535Y-84293500D01*
X129944530Y-84293500D01*
X129741587Y-84333868D01*
X129741579Y-84333870D01*
X129550403Y-84413058D01*
X129378342Y-84528024D01*
X129232024Y-84674342D01*
X129117058Y-84846403D01*
X129037870Y-85037579D01*
X129037868Y-85037587D01*
X128997500Y-85240530D01*
X128997500Y-85447469D01*
X129037868Y-85650412D01*
X129037870Y-85650420D01*
X129099009Y-85798023D01*
X129117059Y-85841598D01*
X129167249Y-85916713D01*
X129232024Y-86013657D01*
X129378342Y-86159975D01*
X129378345Y-86159977D01*
X129550402Y-86274941D01*
X129741580Y-86354130D01*
X129944530Y-86394499D01*
X129944534Y-86394500D01*
X129944535Y-86394500D01*
X130151466Y-86394500D01*
X130151467Y-86394499D01*
X130354420Y-86354130D01*
X130424972Y-86324905D01*
X130494438Y-86317437D01*
X130556918Y-86348711D01*
X130560104Y-86351786D01*
X132648022Y-88439703D01*
X134704031Y-90495712D01*
X134769288Y-90560969D01*
X134769291Y-90560970D01*
X134769294Y-90560973D01*
X134849206Y-90607111D01*
X134849207Y-90607111D01*
X134849212Y-90607114D01*
X134938356Y-90631000D01*
X141785268Y-90631000D01*
X141852307Y-90650685D01*
X141898062Y-90703489D01*
X141908006Y-90772647D01*
X141878981Y-90836203D01*
X141854158Y-90858103D01*
X141824342Y-90878024D01*
X141678024Y-91024342D01*
X141563056Y-91196405D01*
X141533836Y-91266952D01*
X141489995Y-91321356D01*
X141423701Y-91343421D01*
X141419275Y-91343500D01*
X132423556Y-91343500D01*
X132342453Y-91365230D01*
X132342454Y-91365231D01*
X132334413Y-91367385D01*
X132334409Y-91367387D01*
X132254491Y-91413527D01*
X132254486Y-91413531D01*
X131360181Y-92307837D01*
X131298858Y-92341322D01*
X131229166Y-92336338D01*
X131173233Y-92294466D01*
X131148816Y-92229002D01*
X131148500Y-92220156D01*
X131148500Y-92089323D01*
X131148499Y-92089321D01*
X131133967Y-92016264D01*
X131133966Y-92016260D01*
X131123382Y-92000420D01*
X131078601Y-91933399D01*
X130995740Y-91878034D01*
X130995739Y-91878033D01*
X130995735Y-91878032D01*
X130922677Y-91863500D01*
X130922674Y-91863500D01*
X129173326Y-91863500D01*
X129173323Y-91863500D01*
X129100264Y-91878032D01*
X129100260Y-91878033D01*
X129017399Y-91933399D01*
X128962033Y-92016260D01*
X128962032Y-92016264D01*
X128947500Y-92089321D01*
X127783500Y-92089321D01*
X127783500Y-90337389D01*
X128947500Y-90337389D01*
X128947500Y-90510610D01*
X128969685Y-90650685D01*
X128974598Y-90681701D01*
X129028127Y-90846445D01*
X129106768Y-91000788D01*
X129208586Y-91140928D01*
X129331072Y-91263414D01*
X129471212Y-91365232D01*
X129625555Y-91443873D01*
X129790299Y-91497402D01*
X129961389Y-91524500D01*
X129961390Y-91524500D01*
X130134610Y-91524500D01*
X130134611Y-91524500D01*
X130305701Y-91497402D01*
X130470445Y-91443873D01*
X130624788Y-91365232D01*
X130764928Y-91263414D01*
X130887414Y-91140928D01*
X130989232Y-91000788D01*
X131067873Y-90846445D01*
X131121402Y-90681701D01*
X131148500Y-90510611D01*
X131148500Y-90337389D01*
X131121402Y-90166299D01*
X131067873Y-90001555D01*
X130989232Y-89847212D01*
X130887414Y-89707072D01*
X130764928Y-89584586D01*
X130624788Y-89482768D01*
X130580927Y-89460420D01*
X130470447Y-89404128D01*
X130470446Y-89404127D01*
X130470445Y-89404127D01*
X130305701Y-89350598D01*
X130305699Y-89350597D01*
X130305698Y-89350597D01*
X130174271Y-89329781D01*
X130134611Y-89323500D01*
X129961389Y-89323500D01*
X129921728Y-89329781D01*
X129790302Y-89350597D01*
X129625552Y-89404128D01*
X129471211Y-89482768D01*
X129393825Y-89538993D01*
X129331072Y-89584586D01*
X129331070Y-89584588D01*
X129331069Y-89584588D01*
X129208588Y-89707069D01*
X129208588Y-89707070D01*
X129208586Y-89707072D01*
X129186762Y-89737110D01*
X129106768Y-89847211D01*
X129028128Y-90001552D01*
X128974597Y-90166302D01*
X128947500Y-90337389D01*
X127783500Y-90337389D01*
X127783500Y-80536038D01*
X128682500Y-80536038D01*
X128682500Y-80787962D01*
X128719634Y-81022415D01*
X128721910Y-81036785D01*
X128799760Y-81276383D01*
X128868011Y-81410332D01*
X128905874Y-81484642D01*
X128914132Y-81500848D01*
X129062201Y-81704649D01*
X129062205Y-81704654D01*
X129240345Y-81882794D01*
X129240350Y-81882798D01*
X129418117Y-82011952D01*
X129444155Y-82030870D01*
X129571929Y-82095974D01*
X129668616Y-82145239D01*
X129668618Y-82145239D01*
X129668621Y-82145241D01*
X129908215Y-82223090D01*
X130157038Y-82262500D01*
X130157039Y-82262500D01*
X130408961Y-82262500D01*
X130408962Y-82262500D01*
X130657785Y-82223090D01*
X130897379Y-82145241D01*
X131121845Y-82030870D01*
X131325656Y-81882793D01*
X131503793Y-81704656D01*
X131651870Y-81500845D01*
X131766241Y-81276379D01*
X131844090Y-81036785D01*
X131860032Y-80936135D01*
X135895500Y-80936135D01*
X135895500Y-82131870D01*
X135895501Y-82131876D01*
X135901908Y-82191483D01*
X135952202Y-82326328D01*
X135952206Y-82326335D01*
X136038452Y-82441544D01*
X136038455Y-82441547D01*
X136153664Y-82527793D01*
X136153671Y-82527797D01*
X136288517Y-82578091D01*
X136288516Y-82578091D01*
X136295444Y-82578835D01*
X136348127Y-82584500D01*
X137543872Y-82584499D01*
X137603483Y-82578091D01*
X137738331Y-82527796D01*
X137853546Y-82441546D01*
X137939796Y-82326331D01*
X137990091Y-82191483D01*
X137996500Y-82131873D01*
X137996499Y-81586142D01*
X138005145Y-81556696D01*
X138011667Y-81526716D01*
X138015419Y-81521702D01*
X138016183Y-81519104D01*
X138032813Y-81498467D01*
X138134321Y-81396959D01*
X138195642Y-81363476D01*
X138265334Y-81368460D01*
X138321267Y-81410332D01*
X138345684Y-81475796D01*
X138346000Y-81484642D01*
X138346000Y-81620571D01*
X138373085Y-81791584D01*
X138426591Y-81956257D01*
X138505195Y-82110523D01*
X138505196Y-82110525D01*
X138539463Y-82157691D01*
X138539464Y-82157691D01*
X139059629Y-81637527D01*
X139073259Y-81688394D01*
X139125920Y-81779606D01*
X139200394Y-81854080D01*
X139291606Y-81906741D01*
X139342471Y-81920370D01*
X138822307Y-82440534D01*
X138869478Y-82474805D01*
X139023742Y-82553408D01*
X139188415Y-82606914D01*
X139359429Y-82634000D01*
X139532571Y-82634000D01*
X139703584Y-82606914D01*
X139868257Y-82553408D01*
X140022525Y-82474803D01*
X140069691Y-82440534D01*
X140069692Y-82440533D01*
X139549529Y-81920370D01*
X139600394Y-81906741D01*
X139691606Y-81854080D01*
X139766080Y-81779606D01*
X139818741Y-81688394D01*
X139832370Y-81637528D01*
X140352533Y-82157692D01*
X140352534Y-82157691D01*
X140386803Y-82110525D01*
X140465408Y-81956257D01*
X140518914Y-81791584D01*
X140546000Y-81620571D01*
X140546000Y-81447428D01*
X140518914Y-81276415D01*
X140465408Y-81111742D01*
X140386805Y-80957478D01*
X140352534Y-80910307D01*
X139832370Y-81430471D01*
X139818741Y-81379606D01*
X139766080Y-81288394D01*
X139691606Y-81213920D01*
X139600394Y-81161259D01*
X139549527Y-81147629D01*
X140075089Y-80622066D01*
X140085218Y-80573852D01*
X140134270Y-80524095D01*
X140194472Y-80508500D01*
X144308086Y-80508500D01*
X144375125Y-80528185D01*
X144420880Y-80580989D01*
X144430824Y-80650147D01*
X144411189Y-80701390D01*
X144357058Y-80782403D01*
X144277870Y-80973579D01*
X144277868Y-80973587D01*
X144237500Y-81176530D01*
X144237500Y-81383469D01*
X144277868Y-81586412D01*
X144277870Y-81586420D01*
X144357058Y-81777596D01*
X144472024Y-81949657D01*
X144618342Y-82095975D01*
X144618345Y-82095977D01*
X144790402Y-82210941D01*
X144981580Y-82290130D01*
X145163561Y-82326328D01*
X145184530Y-82330499D01*
X145184534Y-82330500D01*
X145184535Y-82330500D01*
X145391466Y-82330500D01*
X145391467Y-82330499D01*
X145594420Y-82290130D01*
X145785598Y-82210941D01*
X145957655Y-82095977D01*
X146103977Y-81949655D01*
X146218941Y-81777598D01*
X146298130Y-81586420D01*
X146338500Y-81383465D01*
X146338500Y-81176535D01*
X146298130Y-80973580D01*
X146218941Y-80782402D01*
X146164811Y-80701390D01*
X146143934Y-80634712D01*
X146162419Y-80567332D01*
X146214398Y-80520643D01*
X146267914Y-80508500D01*
X146848086Y-80508500D01*
X146915125Y-80528185D01*
X146960880Y-80580989D01*
X146970824Y-80650147D01*
X146951189Y-80701390D01*
X146897058Y-80782403D01*
X146817870Y-80973579D01*
X146817868Y-80973587D01*
X146777500Y-81176530D01*
X146777500Y-81383469D01*
X146817868Y-81586412D01*
X146817870Y-81586420D01*
X146897058Y-81777596D01*
X147012024Y-81949657D01*
X147158342Y-82095975D01*
X147158345Y-82095977D01*
X147330402Y-82210941D01*
X147521580Y-82290130D01*
X147703561Y-82326328D01*
X147724530Y-82330499D01*
X147724534Y-82330500D01*
X147724535Y-82330500D01*
X147931466Y-82330500D01*
X147931467Y-82330499D01*
X148134420Y-82290130D01*
X148325598Y-82210941D01*
X148497655Y-82095977D01*
X148643977Y-81949655D01*
X148758941Y-81777598D01*
X148838130Y-81586420D01*
X148878500Y-81383465D01*
X148878500Y-81176535D01*
X148838130Y-80973580D01*
X148758941Y-80782402D01*
X148704811Y-80701390D01*
X148683934Y-80634712D01*
X148702419Y-80567332D01*
X148754398Y-80520643D01*
X148807914Y-80508500D01*
X149464456Y-80508500D01*
X149531495Y-80528185D01*
X149552137Y-80544819D01*
X149775213Y-80767895D01*
X149808698Y-80829218D01*
X149803714Y-80898910D01*
X149802093Y-80903028D01*
X149772871Y-80973575D01*
X149772868Y-80973587D01*
X149732500Y-81176530D01*
X149732500Y-81383469D01*
X149772868Y-81586412D01*
X149772870Y-81586420D01*
X149852058Y-81777596D01*
X149967024Y-81949657D01*
X150113342Y-82095975D01*
X150113345Y-82095977D01*
X150285402Y-82210941D01*
X150476580Y-82290130D01*
X150658561Y-82326328D01*
X150679530Y-82330499D01*
X150679534Y-82330500D01*
X150679535Y-82330500D01*
X150886466Y-82330500D01*
X150886467Y-82330499D01*
X151089420Y-82290130D01*
X151280598Y-82210941D01*
X151452655Y-82095977D01*
X151452658Y-82095974D01*
X151497038Y-82051595D01*
X151598974Y-81949658D01*
X151598975Y-81949657D01*
X151598977Y-81949655D01*
X151713941Y-81777598D01*
X151793130Y-81586420D01*
X151833500Y-81383465D01*
X151833500Y-81193428D01*
X154683000Y-81193428D01*
X154683000Y-81366571D01*
X154710085Y-81537584D01*
X154763591Y-81702257D01*
X154842195Y-81856523D01*
X154842196Y-81856525D01*
X154876463Y-81903691D01*
X154876464Y-81903691D01*
X155396629Y-81383527D01*
X155410259Y-81434394D01*
X155462920Y-81525606D01*
X155537394Y-81600080D01*
X155628606Y-81652741D01*
X155679471Y-81666370D01*
X155159307Y-82186534D01*
X155206478Y-82220805D01*
X155360742Y-82299408D01*
X155525415Y-82352914D01*
X155696429Y-82380000D01*
X155869571Y-82380000D01*
X156040584Y-82352914D01*
X156205257Y-82299408D01*
X156359525Y-82220803D01*
X156406691Y-82186534D01*
X156406692Y-82186533D01*
X155886529Y-81666370D01*
X155937394Y-81652741D01*
X156028606Y-81600080D01*
X156103080Y-81525606D01*
X156155741Y-81434394D01*
X156169370Y-81383528D01*
X156689533Y-81903692D01*
X156689534Y-81903691D01*
X156723803Y-81856525D01*
X156802408Y-81702257D01*
X156855914Y-81537584D01*
X156883000Y-81366571D01*
X156883000Y-81193428D01*
X156855914Y-81022415D01*
X156802408Y-80857742D01*
X156723805Y-80703478D01*
X156689534Y-80656307D01*
X156169370Y-81176471D01*
X156155741Y-81125606D01*
X156103080Y-81034394D01*
X156028606Y-80959920D01*
X155937394Y-80907259D01*
X155886527Y-80893629D01*
X156244117Y-80536038D01*
X158682500Y-80536038D01*
X158682500Y-80787962D01*
X158719634Y-81022415D01*
X158721910Y-81036785D01*
X158799760Y-81276383D01*
X158868011Y-81410332D01*
X158905874Y-81484642D01*
X158914132Y-81500848D01*
X159062201Y-81704649D01*
X159062205Y-81704654D01*
X159240345Y-81882794D01*
X159240350Y-81882798D01*
X159418117Y-82011952D01*
X159444155Y-82030870D01*
X159571929Y-82095974D01*
X159668616Y-82145239D01*
X159668618Y-82145239D01*
X159668621Y-82145241D01*
X159908215Y-82223090D01*
X160157038Y-82262500D01*
X160157039Y-82262500D01*
X160408961Y-82262500D01*
X160408962Y-82262500D01*
X160657785Y-82223090D01*
X160897379Y-82145241D01*
X161121845Y-82030870D01*
X161325656Y-81882793D01*
X161503793Y-81704656D01*
X161651870Y-81500845D01*
X161766241Y-81276379D01*
X161844090Y-81036785D01*
X161883500Y-80787962D01*
X161883500Y-80536038D01*
X161844090Y-80287215D01*
X161766241Y-80047621D01*
X161766239Y-80047618D01*
X161766239Y-80047616D01*
X161724747Y-79966184D01*
X161651870Y-79823155D01*
X161632952Y-79797117D01*
X161503798Y-79619350D01*
X161503794Y-79619345D01*
X161325654Y-79441205D01*
X161325649Y-79441201D01*
X161121848Y-79293132D01*
X161121847Y-79293131D01*
X161121845Y-79293130D01*
X161051747Y-79257413D01*
X160897383Y-79178760D01*
X160657785Y-79100910D01*
X160408962Y-79061500D01*
X160157038Y-79061500D01*
X160032626Y-79081205D01*
X159908214Y-79100910D01*
X159668616Y-79178760D01*
X159444151Y-79293132D01*
X159240350Y-79441201D01*
X159240345Y-79441205D01*
X159062205Y-79619345D01*
X159062201Y-79619350D01*
X158914132Y-79823151D01*
X158799760Y-80047616D01*
X158721910Y-80287214D01*
X158708249Y-80373464D01*
X158682500Y-80536038D01*
X156244117Y-80536038D01*
X156406691Y-80373464D01*
X156406691Y-80373463D01*
X156359525Y-80339196D01*
X156359523Y-80339195D01*
X156205257Y-80260591D01*
X156040584Y-80207085D01*
X155869571Y-80180000D01*
X155696429Y-80180000D01*
X155525415Y-80207085D01*
X155360740Y-80260592D01*
X155206475Y-80339196D01*
X155159307Y-80373463D01*
X155159307Y-80373464D01*
X155679472Y-80893629D01*
X155628606Y-80907259D01*
X155537394Y-80959920D01*
X155462920Y-81034394D01*
X155410259Y-81125606D01*
X155396629Y-81176472D01*
X154876464Y-80656307D01*
X154876463Y-80656307D01*
X154842196Y-80703475D01*
X154763592Y-80857740D01*
X154710085Y-81022415D01*
X154683000Y-81193428D01*
X151833500Y-81193428D01*
X151833500Y-81176535D01*
X151793130Y-80973580D01*
X151713941Y-80782402D01*
X151598977Y-80610345D01*
X151598975Y-80610342D01*
X151452657Y-80464024D01*
X151317121Y-80373463D01*
X151280598Y-80349059D01*
X151256784Y-80339195D01*
X151089420Y-80269870D01*
X151089412Y-80269868D01*
X150886469Y-80229500D01*
X150886465Y-80229500D01*
X150679535Y-80229500D01*
X150679530Y-80229500D01*
X150476587Y-80269868D01*
X150476575Y-80269871D01*
X150406028Y-80299093D01*
X150336559Y-80306562D01*
X150274080Y-80275287D01*
X150270895Y-80272213D01*
X149876213Y-79877531D01*
X149876208Y-79877527D01*
X149796290Y-79831387D01*
X149796289Y-79831386D01*
X149796288Y-79831386D01*
X149707144Y-79807500D01*
X138831456Y-79807500D01*
X138742312Y-79831386D01*
X138742309Y-79831387D01*
X138662391Y-79877527D01*
X138662386Y-79877531D01*
X137963788Y-80576128D01*
X137902465Y-80609613D01*
X137832773Y-80604629D01*
X137801796Y-80587714D01*
X137738330Y-80540203D01*
X137738328Y-80540202D01*
X137603482Y-80489908D01*
X137603483Y-80489908D01*
X137543883Y-80483501D01*
X137543881Y-80483500D01*
X137543873Y-80483500D01*
X137543864Y-80483500D01*
X136348129Y-80483500D01*
X136348123Y-80483501D01*
X136288516Y-80489908D01*
X136153671Y-80540202D01*
X136153664Y-80540206D01*
X136038455Y-80626452D01*
X136038452Y-80626455D01*
X135952206Y-80741664D01*
X135952202Y-80741671D01*
X135901908Y-80876517D01*
X135895501Y-80936116D01*
X135895500Y-80936135D01*
X131860032Y-80936135D01*
X131883500Y-80787962D01*
X131883500Y-80536038D01*
X131844090Y-80287215D01*
X131766241Y-80047621D01*
X131766239Y-80047618D01*
X131766239Y-80047616D01*
X131724747Y-79966184D01*
X131651870Y-79823155D01*
X131632952Y-79797117D01*
X131503798Y-79619350D01*
X131503794Y-79619345D01*
X131325654Y-79441205D01*
X131325649Y-79441201D01*
X131121848Y-79293132D01*
X131121847Y-79293131D01*
X131121845Y-79293130D01*
X131051747Y-79257413D01*
X130897383Y-79178760D01*
X130657785Y-79100910D01*
X130408962Y-79061500D01*
X130157038Y-79061500D01*
X130032626Y-79081205D01*
X129908214Y-79100910D01*
X129668616Y-79178760D01*
X129444151Y-79293132D01*
X129240350Y-79441201D01*
X129240345Y-79441205D01*
X129062205Y-79619345D01*
X129062201Y-79619350D01*
X128914132Y-79823151D01*
X128799760Y-80047616D01*
X128721910Y-80287214D01*
X128708249Y-80373464D01*
X128682500Y-80536038D01*
X127783500Y-80536038D01*
X127783500Y-78286500D01*
X127803185Y-78219461D01*
X127855989Y-78173706D01*
X127907500Y-78162500D01*
X162658500Y-78162500D01*
X162725539Y-78182185D01*
G37*
%TD.AperFunction*%
%TD*%
M02*
