M48
; DRILL file KiCad 10.0.3 date 2026-06-14T23:16:38
; FORMAT={-:-/ absolute / metric / decimal}
; #@! TF.CreationDate,2026-06-14T23:16:38+01:00
; #@! TF.GenerationSoftware,Kicad,Pcbnew,10.0.3
; #@! TF.FileFunction,Plated,1,2,PTH
FMAT,2
METRIC
; #@! TA.AperFunction,Plated,PTH,ComponentDrill
T1C0.800
; #@! TA.AperFunction,Plated,PTH,ComponentDrill
T2C1.000
%
G90
G05
T1
X129.58Y-97.79
X130.019Y-102.362
X130.048Y-85.344
X132.559Y-102.362
X132.588Y-85.344
X134.58Y-97.79
X135.861Y-87.884
X136.713Y-93.472
X136.946Y-81.534
X138.176Y-98.044
X138.176Y-100.584
X138.401Y-87.884
X138.713Y-93.472
X139.446Y-81.534
X141.478Y-98.044
X141.478Y-102.87
X142.494Y-86.614
X142.494Y-89.154
X142.494Y-91.694
X142.494Y-94.234
X145.288Y-81.28
X147.828Y-81.28
X149.098Y-98.044
X149.098Y-102.87
X150.114Y-86.614
X150.114Y-89.154
X150.114Y-91.694
X150.114Y-94.234
X150.783Y-81.28
X153.75Y-102.362
X153.895Y-87.122
X154.178Y-94.742
X155.783Y-81.28
X156.435Y-87.122
X156.718Y-94.742
X158.75Y-102.362
T2
X130.048Y-90.424
X130.048Y-92.964
X160.303Y-89.346
X160.303Y-91.886
X160.303Y-94.426
M30
